<?xml version="1.0" encoding="UTF-8"?>
<svg xmlns="http://www.w3.org/2000/svg" width="640" height="420" viewBox="0 0 640 420" role="img" aria-labelledby="portrait-title">
  <title id="portrait-title">Blue Mackerel front three-quarter model portrait</title>
  <defs>
    <filter id="portrait-glow" x="-80%" y="-80%" width="260%" height="260%"><feGaussianBlur stdDeviation="4" result="blur"/><feMerge><feMergeNode in="blur"/><feMergeNode in="SourceGraphic"/></feMerge></filter>
    <filter id="portrait-shadow" x="-40%" y="-80%" width="180%" height="260%"><feGaussianBlur stdDeviation="8"/></filter>
  </defs>

  <g><polygon points="251.43,273.99 216.92,104.12 123.08,70.81 157.59,240.68" fill="#98a49d" stroke="#1c211e" stroke-opacity=".68" stroke-width="1.35" stroke-linejoin="round" vector-effect="non-scaling-stroke"/><polygon points="262.51,87.42 168.68,54.11 123.08,70.81 216.92,104.12" fill="#b8c6bf" stroke="#1c211e" stroke-opacity=".68" stroke-width="1.35" stroke-linejoin="round" vector-effect="non-scaling-stroke"/><polygon points="240.91,101.37 147.07,68.07 101.47,61.79 195.31,95.10" fill="#bfcec6" stroke="#1c211e" stroke-opacity=".68" stroke-width="1.35" stroke-linejoin="round" vector-effect="non-scaling-stroke"/><polygon points="160.79,272.87 195.31,95.10 101.47,61.79 66.96,239.56" fill="#98a49d" stroke="#1c211e" stroke-opacity=".68" stroke-width="1.35" stroke-linejoin="round" vector-effect="non-scaling-stroke"/><polygon points="271.74,111.94 252.60,102.73 130.60,113.01 149.74,122.22" fill="#265171" stroke="#1c211e" stroke-opacity=".68" stroke-width="1.35" stroke-linejoin="round" vector-effect="non-scaling-stroke"/><polygon points="297.03,257.29 262.51,87.42 216.92,104.12 251.43,273.99" fill="#b3c1ba" stroke="#1c211e" stroke-opacity=".68" stroke-width="1.35" stroke-linejoin="round" vector-effect="non-scaling-stroke"/><polygon points="271.74,127.82 271.74,111.94 149.74,122.22 149.74,138.10" fill="#234c69" stroke="#1c211e" stroke-opacity=".68" stroke-width="1.35" stroke-linejoin="round" vector-effect="non-scaling-stroke"/><polygon points="149.74,138.10 149.74,122.22 130.60,113.01 130.60,128.88" fill="#1d405a" stroke="#1c211e" stroke-opacity=".68" stroke-width="1.35" stroke-linejoin="round" vector-effect="non-scaling-stroke"/><polygon points="305.57,159.61 233.89,134.17 151.01,143.65 222.69,169.09" fill="#265171" stroke="#1c211e" stroke-opacity=".68" stroke-width="1.35" stroke-linejoin="round" vector-effect="non-scaling-stroke"/><polygon points="206.39,279.14 240.91,101.37 195.31,95.10 160.79,272.87" fill="#b3c1ba" stroke="#1c211e" stroke-opacity=".68" stroke-width="1.35" stroke-linejoin="round" vector-effect="non-scaling-stroke"/><polygon points="222.69,247.35 222.69,169.09 151.01,143.65 151.01,221.91" fill="#1d405a" stroke="#1c211e" stroke-opacity=".68" stroke-width="1.35" stroke-linejoin="round" vector-effect="non-scaling-stroke"/><polygon points="318.05,125.96 288.58,117.92 182.21,133.75 211.68,141.79" fill="#265171" stroke="#1c211e" stroke-opacity=".68" stroke-width="1.35" stroke-linejoin="round" vector-effect="non-scaling-stroke"/><polygon points="305.57,237.87 305.57,159.61 222.69,169.09 222.69,247.35" fill="#244d6b" stroke="#1c211e" stroke-opacity=".68" stroke-width="1.35" stroke-linejoin="round" vector-effect="non-scaling-stroke"/><polygon points="318.05,141.83 318.05,125.96 211.68,141.79 211.68,157.66" fill="#244e6c" stroke="#1c211e" stroke-opacity=".68" stroke-width="1.35" stroke-linejoin="round" vector-effect="non-scaling-stroke"/><polygon points="211.68,157.66 211.68,141.79 182.21,133.75 182.21,149.62" fill="#1d405a" stroke="#1c211e" stroke-opacity=".68" stroke-width="1.35" stroke-linejoin="round" vector-effect="non-scaling-stroke"/><polygon points="564.00,233.22 473.88,211.50 363.27,194.07 453.39,215.79" fill="#bfcdc5" stroke="#1c211e" stroke-opacity=".68" stroke-width="1.35" stroke-linejoin="round" vector-effect="non-scaling-stroke"/><polygon points="369.66,146.70 350.52,137.48 228.52,147.76 247.66,156.98" fill="#265171" stroke="#1c211e" stroke-opacity=".68" stroke-width="1.35" stroke-linejoin="round" vector-effect="non-scaling-stroke"/><polygon points="343.95,374.00 343.95,293.04 270.51,266.97 270.51,347.93" fill="#98a49d" stroke="#1c211e" stroke-opacity=".68" stroke-width="1.35" stroke-linejoin="round" vector-effect="non-scaling-stroke"/><polygon points="369.11,290.16 295.67,264.10 270.51,266.97 343.95,293.04" fill="#bdcbc3" stroke="#1c211e" stroke-opacity=".68" stroke-width="1.35" stroke-linejoin="round" vector-effect="non-scaling-stroke"/><polygon points="449.16,237.65 453.39,215.79 363.27,194.07 359.04,215.93" fill="#98a49d" stroke="#1c211e" stroke-opacity=".68" stroke-width="1.35" stroke-linejoin="round" vector-effect="non-scaling-stroke"/><polygon points="559.76,255.08 564.00,233.22 453.39,215.79 449.16,237.65" fill="#b6c4bd" stroke="#1c211e" stroke-opacity=".68" stroke-width="1.35" stroke-linejoin="round" vector-effect="non-scaling-stroke"/><polygon points="369.66,162.57 369.66,146.70 247.66,156.98 247.66,172.85" fill="#234c69" stroke="#1c211e" stroke-opacity=".68" stroke-width="1.35" stroke-linejoin="round" vector-effect="non-scaling-stroke"/><polygon points="247.66,172.85 247.66,156.98 228.52,147.76 228.52,163.64" fill="#1d405a" stroke="#1c211e" stroke-opacity=".68" stroke-width="1.35" stroke-linejoin="round" vector-effect="non-scaling-stroke"/><polygon points="521.81,192.75 297.81,113.24 149.81,130.16 373.81,209.67" fill="#32668c" stroke="#1c211e" stroke-opacity=".68" stroke-width="1.35" stroke-linejoin="round" vector-effect="non-scaling-stroke"/><polygon points="369.11,371.12 369.11,290.16 343.95,293.04 343.95,374.00" fill="#b3c1ba" stroke="#1c211e" stroke-opacity=".68" stroke-width="1.35" stroke-linejoin="round" vector-effect="non-scaling-stroke"/><polygon points="380.41,33.84 295.35,24.00 266.60,27.29 351.66,37.13" fill="#26506f" stroke="#1c211e" stroke-opacity=".68" stroke-width="1.35" stroke-linejoin="round" vector-effect="non-scaling-stroke"/><polygon points="359.96,176.72 351.66,37.13 266.60,27.29 274.90,166.88" fill="#1d405a" stroke="#1c211e" stroke-opacity=".68" stroke-width="1.35" stroke-linejoin="round" vector-effect="non-scaling-stroke"/><polygon points="415.97,160.71 386.50,152.68 280.13,168.51 309.60,176.54" fill="#265171" stroke="#1c211e" stroke-opacity=".68" stroke-width="1.35" stroke-linejoin="round" vector-effect="non-scaling-stroke"/><polygon points="373.81,344.60 373.81,209.67 149.81,130.16 149.81,265.10" fill="#265170" stroke="#1c211e" stroke-opacity=".68" stroke-width="1.35" stroke-linejoin="round" vector-effect="non-scaling-stroke"/><polygon points="415.97,176.59 415.97,160.71 309.60,176.54 309.60,192.42" fill="#244e6c" stroke="#1c211e" stroke-opacity=".68" stroke-width="1.35" stroke-linejoin="round" vector-effect="non-scaling-stroke"/><polygon points="290.72,234.39 244.36,207.67 108.28,253.30 154.64,280.03" fill="#b7c5bd" stroke="#1c211e" stroke-opacity=".68" stroke-width="1.35" stroke-linejoin="round" vector-effect="non-scaling-stroke"/><polygon points="309.60,192.42 309.60,176.54 280.13,168.51 280.13,184.38" fill="#1d405a" stroke="#1c211e" stroke-opacity=".68" stroke-width="1.35" stroke-linejoin="round" vector-effect="non-scaling-stroke"/><polygon points="159.84,300.81 154.64,280.03 108.28,253.30 113.48,274.09" fill="#98a49d" stroke="#1c211e" stroke-opacity=".68" stroke-width="1.35" stroke-linejoin="round" vector-effect="non-scaling-stroke"/><polygon points="388.72,173.43 380.41,33.84 351.66,37.13 359.96,176.72" fill="#254f6d" stroke="#1c211e" stroke-opacity=".68" stroke-width="1.35" stroke-linejoin="round" vector-effect="non-scaling-stroke"/><polygon points="467.58,181.45 448.44,172.24 326.44,182.52 345.58,191.74" fill="#265171" stroke="#1c211e" stroke-opacity=".68" stroke-width="1.35" stroke-linejoin="round" vector-effect="non-scaling-stroke"/><polygon points="295.92,255.17 290.72,234.39 154.64,280.03 159.84,300.81" fill="#b0bdb6" stroke="#1c211e" stroke-opacity=".68" stroke-width="1.35" stroke-linejoin="round" vector-effect="non-scaling-stroke"/><polygon points="467.58,197.33 467.58,181.45 345.58,191.74 345.58,207.61" fill="#234c69" stroke="#1c211e" stroke-opacity=".68" stroke-width="1.35" stroke-linejoin="round" vector-effect="non-scaling-stroke"/><polygon points="510.73,207.21 434.57,180.18 313.21,194.05 389.37,221.08" fill="#bdcbc3" stroke="#1c211e" stroke-opacity=".68" stroke-width="1.35" stroke-linejoin="round" vector-effect="non-scaling-stroke"/><polygon points="345.58,207.61 345.58,191.74 326.44,182.52 326.44,198.39" fill="#1d405a" stroke="#1c211e" stroke-opacity=".68" stroke-width="1.35" stroke-linejoin="round" vector-effect="non-scaling-stroke"/><polygon points="389.37,331.73 389.37,221.08 313.21,194.05 313.21,304.70" fill="#98a49d" stroke="#1c211e" stroke-opacity=".68" stroke-width="1.35" stroke-linejoin="round" vector-effect="non-scaling-stroke"/><polygon points="521.81,327.68 521.81,192.75 373.81,209.67 373.81,344.60" fill="#2f6185" stroke="#1c211e" stroke-opacity=".68" stroke-width="1.35" stroke-linejoin="round" vector-effect="non-scaling-stroke"/><polygon points="533.76,301.21 533.76,248.10 500.79,236.40 500.79,289.51" fill="#1d405a" stroke="#1c211e" stroke-opacity=".68" stroke-width="1.35" stroke-linejoin="round" vector-effect="non-scaling-stroke"/><polygon points="546.09,246.69 513.12,234.99 500.79,236.40 533.76,248.10" fill="#265171" stroke="#1c211e" stroke-opacity=".68" stroke-width="1.35" stroke-linejoin="round" vector-effect="non-scaling-stroke"/><polygon points="510.73,317.86 510.73,207.21 389.37,221.08 389.37,331.73" fill="#b3c1ba" stroke="#1c211e" stroke-opacity=".68" stroke-width="1.35" stroke-linejoin="round" vector-effect="non-scaling-stroke"/><polygon points="546.09,299.80 546.09,246.69 533.76,248.10 533.76,301.21" fill="#244d6b" stroke="#1c211e" stroke-opacity=".68" stroke-width="1.35" stroke-linejoin="round" vector-effect="non-scaling-stroke"/><polygon points="573.04,228.63 501.37,203.19 377.05,217.41 448.73,242.85" fill="#bdcbc3" stroke="#1c211e" stroke-opacity=".68" stroke-width="1.35" stroke-linejoin="round" vector-effect="non-scaling-stroke"/><polygon points="416.90,314.57 416.90,261.46 383.93,249.76 383.93,302.87" fill="#1d405a" stroke="#1c211e" stroke-opacity=".68" stroke-width="1.35" stroke-linejoin="round" vector-effect="non-scaling-stroke"/><polygon points="429.23,260.05 396.26,248.35 383.93,249.76 416.90,261.46" fill="#265171" stroke="#1c211e" stroke-opacity=".68" stroke-width="1.35" stroke-linejoin="round" vector-effect="non-scaling-stroke"/><polygon points="448.73,353.49 448.73,242.85 377.05,217.41 377.05,328.05" fill="#98a49d" stroke="#1c211e" stroke-opacity=".68" stroke-width="1.35" stroke-linejoin="round" vector-effect="non-scaling-stroke"/><polygon points="429.23,313.16 429.23,260.05 416.90,261.46 416.90,314.57" fill="#244d6b" stroke="#1c211e" stroke-opacity=".68" stroke-width="1.35" stroke-linejoin="round" vector-effect="non-scaling-stroke"/><polygon points="571.04,253.24 564.04,250.76 542.47,253.23 549.47,255.71" fill="#6b6a5b" stroke="#ffe59a" stroke-opacity=".74" stroke-width="1.35" stroke-linejoin="round" vector-effect="non-scaling-stroke" filter="url(#portrait-glow)"/><polygon points="549.47,280.00 549.47,255.71 542.47,253.23 542.47,277.51" fill="#6b6a5b" stroke="#ffe59a" stroke-opacity=".74" stroke-width="1.35" stroke-linejoin="round" vector-effect="non-scaling-stroke" filter="url(#portrait-glow)"/><polygon points="571.04,277.53 571.04,253.24 549.47,255.71 549.47,280.00" fill="#6b6a5b" stroke="#ffe59a" stroke-opacity=".74" stroke-width="1.35" stroke-linejoin="round" vector-effect="non-scaling-stroke" filter="url(#portrait-glow)"/><polygon points="573.04,339.28 573.04,228.63 448.73,242.85 448.73,353.49" fill="#b3c1ba" stroke="#1c211e" stroke-opacity=".68" stroke-width="1.35" stroke-linejoin="round" vector-effect="non-scaling-stroke"/><polygon points="540.52,306.62 533.52,304.14 491.25,308.97 498.25,311.45" fill="#265171" stroke="#1c211e" stroke-opacity=".68" stroke-width="1.35" stroke-linejoin="round" vector-effect="non-scaling-stroke"/><polygon points="540.52,316.54 540.52,306.62 498.25,311.45 498.25,321.37" fill="#244d6b" stroke="#1c211e" stroke-opacity=".68" stroke-width="1.35" stroke-linejoin="round" vector-effect="non-scaling-stroke"/><polygon points="498.25,321.37 498.25,311.45 491.25,308.97 491.25,318.89" fill="#1d405a" stroke="#1c211e" stroke-opacity=".68" stroke-width="1.35" stroke-linejoin="round" vector-effect="non-scaling-stroke"/><polygon points="486.50,262.91 479.50,260.43 457.93,262.89 464.93,265.38" fill="#6b6a5b" stroke="#ffe59a" stroke-opacity=".74" stroke-width="1.35" stroke-linejoin="round" vector-effect="non-scaling-stroke" filter="url(#portrait-glow)"/><polygon points="464.93,289.66 464.93,265.38 457.93,262.89 457.93,287.18" fill="#6b6a5b" stroke="#ffe59a" stroke-opacity=".74" stroke-width="1.35" stroke-linejoin="round" vector-effect="non-scaling-stroke" filter="url(#portrait-glow)"/><polygon points="486.50,287.20 486.50,262.91 464.93,265.38 464.93,289.66" fill="#6b6a5b" stroke="#ffe59a" stroke-opacity=".74" stroke-width="1.35" stroke-linejoin="round" vector-effect="non-scaling-stroke" filter="url(#portrait-glow)"/></g>
</svg>