<?xml version="1.0" encoding="UTF-8"?>
<svg xmlns="http://www.w3.org/2000/svg" width="640" height="420" viewBox="0 0 640 420" role="img" aria-labelledby="portrait-title">
  <title id="portrait-title">Butterfly · Embertip front three-quarter model portrait</title>
  <defs>
    <filter id="portrait-glow" x="-80%" y="-80%" width="260%" height="260%"><feGaussianBlur stdDeviation="4" result="blur"/><feMerge><feMergeNode in="blur"/><feMergeNode in="SourceGraphic"/></feMerge></filter>
    <filter id="portrait-shadow" x="-40%" y="-80%" width="180%" height="260%"><feGaussianBlur stdDeviation="8"/></filter>
  </defs>

  <g><polygon points="581.14,270.35 396.88,155.46 309.36,124.39 493.62,239.29" fill="#b6572c" stroke="#1c211e" stroke-opacity=".68" stroke-width="1.35" stroke-linejoin="round" vector-effect="non-scaling-stroke"/><polygon points="396.88,155.46 407.74,135.54 320.22,104.47 309.36,124.39" fill="#bc5b2e" stroke="#1c211e" stroke-opacity=".68" stroke-width="1.35" stroke-linejoin="round" vector-effect="non-scaling-stroke"/><polygon points="581.14,270.35 592.00,250.43 407.74,135.54 396.88,155.46" fill="#d66836" stroke="#1c211e" stroke-opacity=".68" stroke-width="1.35" stroke-linejoin="round" vector-effect="non-scaling-stroke"/><polygon points="403.42,115.66 297.15,77.94 236.58,84.86 342.85,122.58" fill="#372420" stroke="#1c211e" stroke-opacity=".68" stroke-width="1.35" stroke-linejoin="round" vector-effect="non-scaling-stroke"/><polygon points="342.85,190.81 342.85,122.58 236.58,84.86 236.58,153.09" fill="#2b1b17" stroke="#1c211e" stroke-opacity=".68" stroke-width="1.35" stroke-linejoin="round" vector-effect="non-scaling-stroke"/><polygon points="319.78,145.60 232.26,114.53 48.00,271.56 135.52,302.63" fill="#cf6534" stroke="#1c211e" stroke-opacity=".68" stroke-width="1.35" stroke-linejoin="round" vector-effect="non-scaling-stroke"/><polygon points="403.42,183.88 403.42,115.66 342.85,122.58 342.85,190.81" fill="#34221e" stroke="#1c211e" stroke-opacity=".68" stroke-width="1.35" stroke-linejoin="round" vector-effect="non-scaling-stroke"/><polygon points="146.38,320.06 135.52,302.63 48.00,271.56 58.86,289.00" fill="#b6572c" stroke="#1c211e" stroke-opacity=".68" stroke-width="1.35" stroke-linejoin="round" vector-effect="non-scaling-stroke"/><polygon points="448.07,176.62 448.44,164.26 378.77,84.32 378.40,96.68" fill="#ffcb6f" stroke="#ffe59a" stroke-opacity=".74" stroke-width="1.35" stroke-linejoin="round" vector-effect="non-scaling-stroke" filter="url(#portrait-glow)"/><polygon points="461.94,160.48 392.27,80.54 378.77,84.32 448.44,164.26" fill="#ffcb6f" stroke="#ffe59a" stroke-opacity=".74" stroke-width="1.35" stroke-linejoin="round" vector-effect="non-scaling-stroke" filter="url(#portrait-glow)"/><polygon points="330.64,163.03 319.78,145.60 135.52,302.63 146.38,320.06" fill="#d66836" stroke="#1c211e" stroke-opacity=".68" stroke-width="1.35" stroke-linejoin="round" vector-effect="non-scaling-stroke"/><polygon points="419.75,167.54 350.09,87.60 337.58,86.79 407.24,166.73" fill="#ffcb6f" stroke="#ffe59a" stroke-opacity=".74" stroke-width="1.35" stroke-linejoin="round" vector-effect="non-scaling-stroke" filter="url(#portrait-glow)"/><polygon points="402.14,179.63 407.24,166.73 337.58,86.79 332.48,99.69" fill="#ffcb6f" stroke="#ffe59a" stroke-opacity=".74" stroke-width="1.35" stroke-linejoin="round" vector-effect="non-scaling-stroke" filter="url(#portrait-glow)"/><polygon points="461.57,172.84 461.94,160.48 448.44,164.26 448.07,176.62" fill="#ffcb6f" stroke="#ffe59a" stroke-opacity=".74" stroke-width="1.35" stroke-linejoin="round" vector-effect="non-scaling-stroke" filter="url(#portrait-glow)"/><polygon points="414.65,180.44 419.75,167.54 407.24,166.73 402.14,179.63" fill="#ffcb6f" stroke="#ffe59a" stroke-opacity=".74" stroke-width="1.35" stroke-linejoin="round" vector-effect="non-scaling-stroke" filter="url(#portrait-glow)"/></g>
</svg>