<?xml version="1.0" encoding="UTF-8"?>
<svg xmlns="http://www.w3.org/2000/svg" width="640" height="420" viewBox="0 0 640 420" role="img" aria-labelledby="portrait-title">
  <title id="portrait-title">Hobbit Provisioner front three-quarter model portrait</title>
  <defs>
    <filter id="portrait-glow" x="-80%" y="-80%" width="260%" height="260%"><feGaussianBlur stdDeviation="4" result="blur"/><feMerge><feMergeNode in="blur"/><feMergeNode in="SourceGraphic"/></feMerge></filter>
    <filter id="portrait-shadow" x="-40%" y="-80%" width="180%" height="260%"><feGaussianBlur stdDeviation="8"/></filter>
  </defs>
  <ellipse cx="299.50" cy="366.91" rx="195.62" ry="13" fill="#0c120f" opacity=".32" filter="url(#portrait-shadow)"/>

  <g><polygon points="318.32,127.89 295.57,119.82 186.25,132.31 209.00,140.39" fill="#553927" stroke="#1c211e" stroke-opacity=".68" stroke-width="1.35" stroke-linejoin="round" vector-effect="non-scaling-stroke"/><polygon points="318.32,220.83 318.32,127.89 209.00,140.39 209.00,233.33" fill="#503625" stroke="#1c211e" stroke-opacity=".68" stroke-width="1.35" stroke-linejoin="round" vector-effect="non-scaling-stroke"/><polygon points="356.65,239.90 331.63,231.02 289.58,235.82 314.60,244.71" fill="#d5b36f" stroke="#1c211e" stroke-opacity=".68" stroke-width="1.35" stroke-linejoin="round" vector-effect="non-scaling-stroke"/><polygon points="314.60,333.93 314.60,244.71 289.58,235.82 289.58,325.05" fill="#ac9058" stroke="#1c211e" stroke-opacity=".68" stroke-width="1.35" stroke-linejoin="round" vector-effect="non-scaling-stroke"/><polygon points="397.53,327.43 342.93,308.05 271.45,316.23 326.05,335.60" fill="#bf8966" stroke="#1c211e" stroke-opacity=".68" stroke-width="1.35" stroke-linejoin="round" vector-effect="non-scaling-stroke"/><polygon points="209.00,233.33 209.00,140.39 186.25,132.31 186.25,225.26" fill="#432c1e" stroke="#1c211e" stroke-opacity=".68" stroke-width="1.35" stroke-linejoin="round" vector-effect="non-scaling-stroke"/><polygon points="356.65,329.12 356.65,239.90 314.60,244.71 314.60,333.93" fill="#caaa69" stroke="#1c211e" stroke-opacity=".68" stroke-width="1.35" stroke-linejoin="round" vector-effect="non-scaling-stroke"/><polygon points="326.05,365.35 326.05,335.60 271.45,316.23 271.45,345.97" fill="#9a6e51" stroke="#1c211e" stroke-opacity=".68" stroke-width="1.35" stroke-linejoin="round" vector-effect="non-scaling-stroke"/><polygon points="376.19,76.06 367.09,72.83 333.45,76.68 342.55,79.91" fill="#bf8966" stroke="#1c211e" stroke-opacity=".68" stroke-width="1.35" stroke-linejoin="round" vector-effect="non-scaling-stroke"/><polygon points="364.06,58.60 347.00,52.54 315.46,56.15 332.52,62.20" fill="#563524" stroke="#1c211e" stroke-opacity=".68" stroke-width="1.35" stroke-linejoin="round" vector-effect="non-scaling-stroke"/><polygon points="376.19,107.66 376.19,76.06 342.55,79.91 342.55,111.51" fill="#b58261" stroke="#1c211e" stroke-opacity=".68" stroke-width="1.35" stroke-linejoin="round" vector-effect="non-scaling-stroke"/><polygon points="342.55,111.51 342.55,79.91 333.45,76.68 333.45,108.28" fill="#9a6e51" stroke="#1c211e" stroke-opacity=".68" stroke-width="1.35" stroke-linejoin="round" vector-effect="non-scaling-stroke"/><polygon points="381.86,213.68 329.54,195.11 188.68,211.21 241.01,229.79" fill="#d5b36f" stroke="#1c211e" stroke-opacity=".68" stroke-width="1.35" stroke-linejoin="round" vector-effect="non-scaling-stroke"/><polygon points="332.52,93.80 332.52,62.20 315.46,56.15 315.46,87.75" fill="#44291b" stroke="#1c211e" stroke-opacity=".68" stroke-width="1.35" stroke-linejoin="round" vector-effect="non-scaling-stroke"/><polygon points="386.72,192.55 333.26,173.57 186.10,190.40 239.56,209.37" fill="#553927" stroke="#1c211e" stroke-opacity=".68" stroke-width="1.35" stroke-linejoin="round" vector-effect="non-scaling-stroke"/><polygon points="364.06,90.20 364.06,58.60 332.52,62.20 332.52,93.80" fill="#513222" stroke="#1c211e" stroke-opacity=".68" stroke-width="1.35" stroke-linejoin="round" vector-effect="non-scaling-stroke"/><polygon points="403.12,222.36 359.20,133.84 347.38,157.67 391.31,246.19" fill="#865033" stroke="#1c211e" stroke-opacity=".68" stroke-width="1.35" stroke-linejoin="round" vector-effect="non-scaling-stroke"/><polygon points="280.97,248.55 255.94,239.67 213.89,244.48 238.92,253.36" fill="#d5b36f" stroke="#1c211e" stroke-opacity=".68" stroke-width="1.35" stroke-linejoin="round" vector-effect="non-scaling-stroke"/><polygon points="436.76,218.51 392.84,129.99 359.20,133.84 403.12,222.36" fill="#ad6944" stroke="#1c211e" stroke-opacity=".68" stroke-width="1.35" stroke-linejoin="round" vector-effect="non-scaling-stroke"/><polygon points="238.92,342.58 238.92,253.36 213.89,244.48 213.89,333.70" fill="#ac9058" stroke="#1c211e" stroke-opacity=".68" stroke-width="1.35" stroke-linejoin="round" vector-effect="non-scaling-stroke"/><polygon points="321.84,336.09 267.25,316.71 195.77,324.88 250.36,344.26" fill="#bf8966" stroke="#1c211e" stroke-opacity=".68" stroke-width="1.35" stroke-linejoin="round" vector-effect="non-scaling-stroke"/><polygon points="375.47,133.95 327.70,116.99 197.35,131.89 245.12,148.85" fill="#a76541" stroke="#1c211e" stroke-opacity=".68" stroke-width="1.35" stroke-linejoin="round" vector-effect="non-scaling-stroke"/><polygon points="397.53,357.17 397.53,327.43 326.05,335.60 326.05,365.35" fill="#b58261" stroke="#1c211e" stroke-opacity=".68" stroke-width="1.35" stroke-linejoin="round" vector-effect="non-scaling-stroke"/><polygon points="280.97,337.78 280.97,248.55 238.92,253.36 238.92,342.58" fill="#caaa69" stroke="#1c211e" stroke-opacity=".68" stroke-width="1.35" stroke-linejoin="round" vector-effect="non-scaling-stroke"/><polygon points="436.76,218.51 403.12,222.36 391.31,246.19 424.95,242.34" fill="#865033" stroke="#1c211e" stroke-opacity=".68" stroke-width="1.35" stroke-linejoin="round" vector-effect="non-scaling-stroke"/><polygon points="408.09,215.48 408.09,141.12 336.61,149.29 336.61,223.65" fill="#d1bf99" stroke="#1c211e" stroke-opacity=".68" stroke-width="1.35" stroke-linejoin="round" vector-effect="non-scaling-stroke"/><polygon points="250.36,374.00 250.36,344.26 195.77,324.88 195.77,354.62" fill="#9a6e51" stroke="#1c211e" stroke-opacity=".68" stroke-width="1.35" stroke-linejoin="round" vector-effect="non-scaling-stroke"/><polygon points="367.63,42.17 316.44,24.00 202.92,36.98 254.10,55.15" fill="#563524" stroke="#1c211e" stroke-opacity=".68" stroke-width="1.35" stroke-linejoin="round" vector-effect="non-scaling-stroke"/><polygon points="408.09,141.12 402.40,139.10 330.92,147.28 336.61,149.29" fill="#dbc9a1" stroke="#1c211e" stroke-opacity=".68" stroke-width="1.35" stroke-linejoin="round" vector-effect="non-scaling-stroke"/><polygon points="241.01,263.24 241.01,229.79 188.68,211.21 188.68,244.67" fill="#ac9058" stroke="#1c211e" stroke-opacity=".68" stroke-width="1.35" stroke-linejoin="round" vector-effect="non-scaling-stroke"/><polygon points="375.99,59.02 321.39,39.64 203.66,53.10 258.26,72.48" fill="#bf8966" stroke="#1c211e" stroke-opacity=".68" stroke-width="1.35" stroke-linejoin="round" vector-effect="non-scaling-stroke"/><polygon points="381.86,247.14 381.86,213.68 241.01,229.79 241.01,263.24" fill="#caaa69" stroke="#1c211e" stroke-opacity=".68" stroke-width="1.35" stroke-linejoin="round" vector-effect="non-scaling-stroke"/><polygon points="245.12,264.10 245.12,148.85 197.35,131.89 197.35,247.14" fill="#865033" stroke="#1c211e" stroke-opacity=".68" stroke-width="1.35" stroke-linejoin="round" vector-effect="non-scaling-stroke"/><polygon points="239.56,226.10 239.56,209.37 186.10,190.40 186.10,207.13" fill="#432c1e" stroke="#1c211e" stroke-opacity=".68" stroke-width="1.35" stroke-linejoin="round" vector-effect="non-scaling-stroke"/><polygon points="375.47,249.20 375.47,133.95 245.12,148.85 245.12,264.10" fill="#9f603d" stroke="#1c211e" stroke-opacity=".68" stroke-width="1.35" stroke-linejoin="round" vector-effect="non-scaling-stroke"/><polygon points="336.61,223.65 336.61,149.29 330.92,147.28 330.92,221.63" fill="#b1a281" stroke="#1c211e" stroke-opacity=".68" stroke-width="1.35" stroke-linejoin="round" vector-effect="non-scaling-stroke"/><polygon points="386.72,209.28 386.72,192.55 239.56,209.37 239.56,226.10" fill="#503625" stroke="#1c211e" stroke-opacity=".68" stroke-width="1.35" stroke-linejoin="round" vector-effect="non-scaling-stroke"/><polygon points="455.85,236.70 413.80,241.50 400.67,267.98 442.72,263.17" fill="#9a6e51" stroke="#1c211e" stroke-opacity=".68" stroke-width="1.35" stroke-linejoin="round" vector-effect="non-scaling-stroke"/><polygon points="413.80,241.50 397.53,208.72 384.40,235.20 400.67,267.98" fill="#9a6e51" stroke="#1c211e" stroke-opacity=".68" stroke-width="1.35" stroke-linejoin="round" vector-effect="non-scaling-stroke"/><polygon points="455.85,236.70 439.58,203.91 397.53,208.72 413.80,241.50" fill="#c68f6a" stroke="#1c211e" stroke-opacity=".68" stroke-width="1.35" stroke-linejoin="round" vector-effect="non-scaling-stroke"/><polygon points="331.44,196.89 324.62,194.47 299.39,197.35 306.21,199.78" fill="#83877f" stroke="#1c211e" stroke-opacity=".68" stroke-width="1.35" stroke-linejoin="round" vector-effect="non-scaling-stroke"/><polygon points="250.53,71.58 233.47,65.52 201.94,69.13 219.00,75.18" fill="#563524" stroke="#1c211e" stroke-opacity=".68" stroke-width="1.35" stroke-linejoin="round" vector-effect="non-scaling-stroke"/><polygon points="331.44,222.91 331.44,196.89 306.21,199.78 306.21,225.80" fill="#7c8178" stroke="#1c211e" stroke-opacity=".68" stroke-width="1.35" stroke-linejoin="round" vector-effect="non-scaling-stroke"/><polygon points="306.21,225.80 306.21,199.78 299.39,197.35 299.39,223.38" fill="#686c65" stroke="#1c211e" stroke-opacity=".68" stroke-width="1.35" stroke-linejoin="round" vector-effect="non-scaling-stroke"/><polygon points="321.84,365.83 321.84,336.09 250.36,344.26 250.36,374.00" fill="#b58261" stroke="#1c211e" stroke-opacity=".68" stroke-width="1.35" stroke-linejoin="round" vector-effect="non-scaling-stroke"/><polygon points="219.00,106.78 219.00,75.18 201.94,69.13 201.94,100.73" fill="#44291b" stroke="#1c211e" stroke-opacity=".68" stroke-width="1.35" stroke-linejoin="round" vector-effect="non-scaling-stroke"/><polygon points="258.26,161.70 258.26,72.48 203.66,53.10 203.66,142.33" fill="#9a6e51" stroke="#1c211e" stroke-opacity=".68" stroke-width="1.35" stroke-linejoin="round" vector-effect="non-scaling-stroke"/><polygon points="254.10,84.89 254.10,55.15 202.92,36.98 202.92,66.72" fill="#44291b" stroke="#1c211e" stroke-opacity=".68" stroke-width="1.35" stroke-linejoin="round" vector-effect="non-scaling-stroke"/><polygon points="360.97,86.45 356.99,85.04 343.96,86.53 347.94,87.94" fill="#70684f" stroke="#ffe59a" stroke-opacity=".74" stroke-width="1.35" stroke-linejoin="round" vector-effect="non-scaling-stroke" filter="url(#portrait-glow)"/><polygon points="241.64,91.45 232.54,88.22 198.90,92.06 208.00,95.29" fill="#bf8966" stroke="#1c211e" stroke-opacity=".68" stroke-width="1.35" stroke-linejoin="round" vector-effect="non-scaling-stroke"/><polygon points="360.97,97.97 360.97,86.45 347.94,87.94 347.94,99.46" fill="#70684f" stroke="#ffe59a" stroke-opacity=".74" stroke-width="1.35" stroke-linejoin="round" vector-effect="non-scaling-stroke" filter="url(#portrait-glow)"/><polygon points="347.94,99.46 347.94,87.94 343.96,86.53 343.96,98.05" fill="#70684f" stroke="#ffe59a" stroke-opacity=".74" stroke-width="1.35" stroke-linejoin="round" vector-effect="non-scaling-stroke" filter="url(#portrait-glow)"/><polygon points="250.53,103.18 250.53,71.58 219.00,75.18 219.00,106.78" fill="#513222" stroke="#1c211e" stroke-opacity=".68" stroke-width="1.35" stroke-linejoin="round" vector-effect="non-scaling-stroke"/><polygon points="241.64,123.05 241.64,91.45 208.00,95.29 208.00,126.89" fill="#b58261" stroke="#1c211e" stroke-opacity=".68" stroke-width="1.35" stroke-linejoin="round" vector-effect="non-scaling-stroke"/><polygon points="208.00,126.89 208.00,95.29 198.90,92.06 198.90,123.67" fill="#9a6e51" stroke="#1c211e" stroke-opacity=".68" stroke-width="1.35" stroke-linejoin="round" vector-effect="non-scaling-stroke"/><polygon points="367.63,71.91 367.63,42.17 254.10,55.15 254.10,84.89" fill="#513222" stroke="#1c211e" stroke-opacity=".68" stroke-width="1.35" stroke-linejoin="round" vector-effect="non-scaling-stroke"/><polygon points="342.64,136.97 338.66,135.56 296.61,140.37 300.59,141.78" fill="#653932" stroke="#1c211e" stroke-opacity=".68" stroke-width="1.35" stroke-linejoin="round" vector-effect="non-scaling-stroke"/><polygon points="375.99,148.24 375.99,59.02 258.26,72.48 258.26,161.70" fill="#b58261" stroke="#1c211e" stroke-opacity=".68" stroke-width="1.35" stroke-linejoin="round" vector-effect="non-scaling-stroke"/><polygon points="342.64,145.34 342.64,136.97 300.59,141.78 300.59,150.14" fill="#60362f" stroke="#1c211e" stroke-opacity=".68" stroke-width="1.35" stroke-linejoin="round" vector-effect="non-scaling-stroke"/><polygon points="300.59,150.14 300.59,141.78 296.61,140.37 296.61,148.73" fill="#502c26" stroke="#1c211e" stroke-opacity=".68" stroke-width="1.35" stroke-linejoin="round" vector-effect="non-scaling-stroke"/><polygon points="364.93,113.57 339.90,104.69 285.24,110.94 310.27,119.82" fill="#a0684d" stroke="#1c211e" stroke-opacity=".68" stroke-width="1.35" stroke-linejoin="round" vector-effect="non-scaling-stroke"/><polygon points="310.27,151.42 310.27,119.82 285.24,110.94 285.24,142.54" fill="#81533d" stroke="#1c211e" stroke-opacity=".68" stroke-width="1.35" stroke-linejoin="round" vector-effect="non-scaling-stroke"/><polygon points="293.70,94.14 289.72,92.73 276.68,94.22 280.66,95.63" fill="#70684f" stroke="#ffe59a" stroke-opacity=".74" stroke-width="1.35" stroke-linejoin="round" vector-effect="non-scaling-stroke" filter="url(#portrait-glow)"/><polygon points="293.70,105.67 293.70,94.14 280.66,95.63 280.66,107.16" fill="#70684f" stroke="#ffe59a" stroke-opacity=".74" stroke-width="1.35" stroke-linejoin="round" vector-effect="non-scaling-stroke" filter="url(#portrait-glow)"/><polygon points="280.66,107.16 280.66,95.63 276.68,94.22 276.68,105.74" fill="#70684f" stroke="#ffe59a" stroke-opacity=".74" stroke-width="1.35" stroke-linejoin="round" vector-effect="non-scaling-stroke" filter="url(#portrait-glow)"/><polygon points="243.39,230.22 193.65,150.87 184.15,177.66 233.89,257.01" fill="#865033" stroke="#1c211e" stroke-opacity=".68" stroke-width="1.35" stroke-linejoin="round" vector-effect="non-scaling-stroke"/><polygon points="277.02,226.37 227.29,147.02 193.65,150.87 243.39,230.22" fill="#ad6944" stroke="#1c211e" stroke-opacity=".68" stroke-width="1.35" stroke-linejoin="round" vector-effect="non-scaling-stroke"/><polygon points="364.93,145.17 364.93,113.57 310.27,119.82 310.27,151.42" fill="#986349" stroke="#1c211e" stroke-opacity=".68" stroke-width="1.35" stroke-linejoin="round" vector-effect="non-scaling-stroke"/><polygon points="277.02,226.37 243.39,230.22 233.89,257.01 267.52,253.16" fill="#895234" stroke="#1c211e" stroke-opacity=".68" stroke-width="1.35" stroke-linejoin="round" vector-effect="non-scaling-stroke"/><polygon points="255.07,246.37 236.65,216.98 226.09,246.75 244.51,276.14" fill="#9a6e51" stroke="#1c211e" stroke-opacity=".68" stroke-width="1.35" stroke-linejoin="round" vector-effect="non-scaling-stroke"/><polygon points="297.12,241.56 278.70,212.18 236.65,216.98 255.07,246.37" fill="#c68f6a" stroke="#1c211e" stroke-opacity=".68" stroke-width="1.35" stroke-linejoin="round" vector-effect="non-scaling-stroke"/><polygon points="297.12,241.56 255.07,246.37 244.51,276.14 286.56,271.33" fill="#9d7153" stroke="#1c211e" stroke-opacity=".68" stroke-width="1.35" stroke-linejoin="round" vector-effect="non-scaling-stroke"/></g>
</svg>