<?xml version="1.0" encoding="UTF-8"?>
<svg xmlns="http://www.w3.org/2000/svg" width="640" height="420" viewBox="0 0 640 420" role="img" aria-labelledby="portrait-title">
  <title id="portrait-title">Mossback Kite front three-quarter model portrait</title>
  <defs>
    <filter id="portrait-glow" x="-80%" y="-80%" width="260%" height="260%"><feGaussianBlur stdDeviation="4" result="blur"/><feMerge><feMergeNode in="blur"/><feMergeNode in="SourceGraphic"/></feMerge></filter>
    <filter id="portrait-shadow" x="-40%" y="-80%" width="180%" height="260%"><feGaussianBlur stdDeviation="8"/></filter>
  </defs>

  <g><polygon points="161.36,160.80 133.23,147.25 109.21,149.28 137.34,162.82" fill="#d6c9b3" stroke="#1c211e" stroke-opacity=".68" stroke-width="1.35" stroke-linejoin="round" vector-effect="non-scaling-stroke"/><polygon points="137.34,176.42 137.34,162.82 109.21,149.28 109.21,162.88" fill="#ada290" stroke="#1c211e" stroke-opacity=".68" stroke-width="1.35" stroke-linejoin="round" vector-effect="non-scaling-stroke"/><polygon points="161.36,174.40 161.36,160.80 137.34,162.82 137.34,176.42" fill="#c9bda8" stroke="#1c211e" stroke-opacity=".68" stroke-width="1.35" stroke-linejoin="round" vector-effect="non-scaling-stroke"/><polygon points="172.38,168.24 129.08,156.43 108.14,159.54 151.45,171.35" fill="#bb9d56" stroke="#1c211e" stroke-opacity=".68" stroke-width="1.35" stroke-linejoin="round" vector-effect="non-scaling-stroke"/><polygon points="151.45,184.95 151.45,171.35 108.14,159.54 108.14,173.14" fill="#967e44" stroke="#1c211e" stroke-opacity=".68" stroke-width="1.35" stroke-linejoin="round" vector-effect="non-scaling-stroke"/><polygon points="172.38,181.83 172.38,168.24 151.45,171.35 151.45,184.95" fill="#b49752" stroke="#1c211e" stroke-opacity=".68" stroke-width="1.35" stroke-linejoin="round" vector-effect="non-scaling-stroke"/><polygon points="219.61,172.98 191.47,159.43 167.46,161.45 195.59,175.00" fill="#d6c9b3" stroke="#1c211e" stroke-opacity=".68" stroke-width="1.35" stroke-linejoin="round" vector-effect="non-scaling-stroke"/><polygon points="195.59,188.60 195.59,175.00 167.46,161.45 167.46,175.05" fill="#ada290" stroke="#1c211e" stroke-opacity=".68" stroke-width="1.35" stroke-linejoin="round" vector-effect="non-scaling-stroke"/><polygon points="219.61,186.57 219.61,172.98 195.59,175.00 195.59,188.60" fill="#c9bda8" stroke="#1c211e" stroke-opacity=".68" stroke-width="1.35" stroke-linejoin="round" vector-effect="non-scaling-stroke"/><polygon points="230.63,180.41 187.32,168.60 166.39,171.72 209.69,183.53" fill="#bb9d56" stroke="#1c211e" stroke-opacity=".68" stroke-width="1.35" stroke-linejoin="round" vector-effect="non-scaling-stroke"/><polygon points="209.69,197.13 209.69,183.53 166.39,171.72 166.39,185.32" fill="#967e44" stroke="#1c211e" stroke-opacity=".68" stroke-width="1.35" stroke-linejoin="round" vector-effect="non-scaling-stroke"/><polygon points="230.63,194.01 230.63,180.41 209.69,183.53 209.69,197.13" fill="#b49752" stroke="#1c211e" stroke-opacity=".68" stroke-width="1.35" stroke-linejoin="round" vector-effect="non-scaling-stroke"/><polygon points="277.85,185.15 249.72,171.61 225.71,173.63 253.84,187.18" fill="#d6c9b3" stroke="#1c211e" stroke-opacity=".68" stroke-width="1.35" stroke-linejoin="round" vector-effect="non-scaling-stroke"/><polygon points="253.84,200.77 253.84,187.18 225.71,173.63 225.71,187.23" fill="#ada290" stroke="#1c211e" stroke-opacity=".68" stroke-width="1.35" stroke-linejoin="round" vector-effect="non-scaling-stroke"/><polygon points="504.88,166.09 463.65,142.33 312.94,152.94 354.16,176.71" fill="#bb9d56" stroke="#1c211e" stroke-opacity=".68" stroke-width="1.35" stroke-linejoin="round" vector-effect="non-scaling-stroke"/><polygon points="498.61,131.44 481.47,125.36 457.33,128.12 474.46,134.20" fill="#4a6644" stroke="#1c211e" stroke-opacity=".68" stroke-width="1.35" stroke-linejoin="round" vector-effect="non-scaling-stroke"/><polygon points="474.46,154.60 474.46,134.20 457.33,128.12 457.33,148.52" fill="#3a5135" stroke="#1c211e" stroke-opacity=".68" stroke-width="1.35" stroke-linejoin="round" vector-effect="non-scaling-stroke"/><polygon points="354.16,186.90 354.16,176.71 312.94,152.94 312.94,163.14" fill="#967e44" stroke="#1c211e" stroke-opacity=".68" stroke-width="1.35" stroke-linejoin="round" vector-effect="non-scaling-stroke"/><polygon points="277.85,198.75 277.85,185.15 253.84,187.18 253.84,200.77" fill="#c9bda8" stroke="#1c211e" stroke-opacity=".68" stroke-width="1.35" stroke-linejoin="round" vector-effect="non-scaling-stroke"/><polygon points="498.61,151.84 498.61,131.44 474.46,134.20 474.46,154.60" fill="#466140" stroke="#1c211e" stroke-opacity=".68" stroke-width="1.35" stroke-linejoin="round" vector-effect="non-scaling-stroke"/><polygon points="451.82,136.79 434.69,130.71 410.54,133.47 427.67,139.55" fill="#4a6644" stroke="#1c211e" stroke-opacity=".68" stroke-width="1.35" stroke-linejoin="round" vector-effect="non-scaling-stroke"/><polygon points="302.36,281.20 302.36,216.61 292.08,212.96 292.08,277.55" fill="#293a25" stroke="#1c211e" stroke-opacity=".68" stroke-width="1.35" stroke-linejoin="round" vector-effect="non-scaling-stroke"/><polygon points="349.48,277.95 322.06,268.22 276.79,273.40 304.20,283.13" fill="#d6c9b3" stroke="#1c211e" stroke-opacity=".68" stroke-width="1.35" stroke-linejoin="round" vector-effect="non-scaling-stroke"/><polygon points="320.47,214.54 310.19,210.89 292.08,212.96 302.36,216.61" fill="#354b30" stroke="#1c211e" stroke-opacity=".68" stroke-width="1.35" stroke-linejoin="round" vector-effect="non-scaling-stroke"/><polygon points="427.67,159.95 427.67,139.55 410.54,133.47 410.54,153.87" fill="#3a5135" stroke="#1c211e" stroke-opacity=".68" stroke-width="1.35" stroke-linejoin="round" vector-effect="non-scaling-stroke"/><polygon points="320.47,279.13 320.47,214.54 302.36,216.61 302.36,281.20" fill="#32462d" stroke="#1c211e" stroke-opacity=".68" stroke-width="1.35" stroke-linejoin="round" vector-effect="non-scaling-stroke"/><polygon points="562.81,156.33 545.68,150.25 343.40,145.90 360.53,151.99" fill="#354b30" stroke="#1c211e" stroke-opacity=".68" stroke-width="1.35" stroke-linejoin="round" vector-effect="non-scaling-stroke"/><polygon points="504.88,176.29 504.88,166.09 354.16,176.71 354.16,186.90" fill="#ae9350" stroke="#1c211e" stroke-opacity=".68" stroke-width="1.35" stroke-linejoin="round" vector-effect="non-scaling-stroke"/><polygon points="451.82,157.19 451.82,136.79 427.67,139.55 427.67,159.95" fill="#466140" stroke="#1c211e" stroke-opacity=".68" stroke-width="1.35" stroke-linejoin="round" vector-effect="non-scaling-stroke"/><polygon points="304.20,296.73 304.20,283.13 276.79,273.40 276.79,287.00" fill="#ada290" stroke="#1c211e" stroke-opacity=".68" stroke-width="1.35" stroke-linejoin="round" vector-effect="non-scaling-stroke"/><polygon points="560.65,176.83 562.81,156.33 360.53,151.99 358.36,172.48" fill="#32462d" stroke="#1c211e" stroke-opacity=".68" stroke-width="1.35" stroke-linejoin="round" vector-effect="non-scaling-stroke"/><polygon points="349.48,291.55 349.48,277.95 304.20,283.13 304.20,296.73" fill="#ccbfaa" stroke="#1c211e" stroke-opacity=".68" stroke-width="1.35" stroke-linejoin="round" vector-effect="non-scaling-stroke"/><polygon points="405.03,142.14 387.90,136.06 363.75,138.82 380.88,144.90" fill="#4a6644" stroke="#1c211e" stroke-opacity=".68" stroke-width="1.35" stroke-linejoin="round" vector-effect="non-scaling-stroke"/><polygon points="380.88,165.30 380.88,144.90 363.75,138.82 363.75,159.22" fill="#3a5135" stroke="#1c211e" stroke-opacity=".68" stroke-width="1.35" stroke-linejoin="round" vector-effect="non-scaling-stroke"/><polygon points="248.03,287.41 248.03,222.82 237.75,219.17 237.75,283.77" fill="#293a25" stroke="#1c211e" stroke-opacity=".68" stroke-width="1.35" stroke-linejoin="round" vector-effect="non-scaling-stroke"/><polygon points="295.14,284.16 267.73,274.43 222.45,279.61 249.86,289.34" fill="#d6c9b3" stroke="#1c211e" stroke-opacity=".68" stroke-width="1.35" stroke-linejoin="round" vector-effect="non-scaling-stroke"/><polygon points="266.14,220.75 255.86,217.10 237.75,219.17 248.03,222.82" fill="#354b30" stroke="#1c211e" stroke-opacity=".68" stroke-width="1.35" stroke-linejoin="round" vector-effect="non-scaling-stroke"/><polygon points="266.14,285.34 266.14,220.75 248.03,222.82 248.03,287.41" fill="#32462d" stroke="#1c211e" stroke-opacity=".68" stroke-width="1.35" stroke-linejoin="round" vector-effect="non-scaling-stroke"/><polygon points="405.03,162.53 405.03,142.14 380.88,144.90 380.88,165.30" fill="#466140" stroke="#1c211e" stroke-opacity=".68" stroke-width="1.35" stroke-linejoin="round" vector-effect="non-scaling-stroke"/><polygon points="249.86,302.94 249.86,289.34 222.45,279.61 222.45,293.21" fill="#ada290" stroke="#1c211e" stroke-opacity=".68" stroke-width="1.35" stroke-linejoin="round" vector-effect="non-scaling-stroke"/><polygon points="592.00,171.39 519.82,151.70 369.07,174.14 441.25,193.82" fill="#ccf2e4" stroke="#1c211e" stroke-opacity=".68" stroke-width="1.35" stroke-linejoin="round" vector-effect="non-scaling-stroke"/><polygon points="295.14,297.76 295.14,284.16 249.86,289.34 249.86,302.94" fill="#ccbfaa" stroke="#1c211e" stroke-opacity=".68" stroke-width="1.35" stroke-linejoin="round" vector-effect="non-scaling-stroke"/><polygon points="394.26,171.04 303.46,138.81 194.80,151.23 285.60,183.46" fill="#4a6644" stroke="#1c211e" stroke-opacity=".68" stroke-width="1.35" stroke-linejoin="round" vector-effect="non-scaling-stroke"/><polygon points="358.36,172.48 360.53,151.99 343.40,145.90 341.23,166.40" fill="#293a25" stroke="#1c211e" stroke-opacity=".68" stroke-width="1.35" stroke-linejoin="round" vector-effect="non-scaling-stroke"/><polygon points="285.60,254.85 285.60,183.46 194.80,151.23 194.80,222.62" fill="#3a5135" stroke="#1c211e" stroke-opacity=".68" stroke-width="1.35" stroke-linejoin="round" vector-effect="non-scaling-stroke"/><polygon points="592.00,181.58 592.00,171.39 441.25,193.82 441.25,204.02" fill="#c4e9db" stroke="#1c211e" stroke-opacity=".68" stroke-width="1.35" stroke-linejoin="round" vector-effect="non-scaling-stroke"/><polygon points="441.25,204.02 441.25,193.82 369.07,174.14 369.07,184.33" fill="#a5c4b8" stroke="#1c211e" stroke-opacity=".68" stroke-width="1.35" stroke-linejoin="round" vector-effect="non-scaling-stroke"/><polygon points="250.63,188.54 170.50,169.23 48.00,189.86 128.13,209.17" fill="#bb9d56" stroke="#1c211e" stroke-opacity=".68" stroke-width="1.35" stroke-linejoin="round" vector-effect="non-scaling-stroke"/><polygon points="239.01,161.12 221.88,155.04 197.73,157.80 214.87,163.88" fill="#4a6644" stroke="#1c211e" stroke-opacity=".68" stroke-width="1.35" stroke-linejoin="round" vector-effect="non-scaling-stroke"/><polygon points="214.87,184.28 214.87,163.88 197.73,157.80 197.73,178.20" fill="#3a5135" stroke="#1c211e" stroke-opacity=".68" stroke-width="1.35" stroke-linejoin="round" vector-effect="non-scaling-stroke"/><polygon points="394.26,242.43 394.26,171.04 285.60,183.46 285.60,254.85" fill="#466140" stroke="#1c211e" stroke-opacity=".68" stroke-width="1.35" stroke-linejoin="round" vector-effect="non-scaling-stroke"/><polygon points="239.01,181.52 239.01,161.12 214.87,163.88 214.87,184.28" fill="#466140" stroke="#1c211e" stroke-opacity=".68" stroke-width="1.35" stroke-linejoin="round" vector-effect="non-scaling-stroke"/><polygon points="192.23,166.47 175.10,160.39 150.95,163.15 168.08,169.23" fill="#4a6644" stroke="#1c211e" stroke-opacity=".68" stroke-width="1.35" stroke-linejoin="round" vector-effect="non-scaling-stroke"/><polygon points="250.63,198.74 250.63,188.54 128.13,209.17 128.13,219.37" fill="#b49853" stroke="#1c211e" stroke-opacity=".68" stroke-width="1.35" stroke-linejoin="round" vector-effect="non-scaling-stroke"/><polygon points="128.13,219.37 128.13,209.17 48.00,189.86 48.00,200.06" fill="#967e44" stroke="#1c211e" stroke-opacity=".68" stroke-width="1.35" stroke-linejoin="round" vector-effect="non-scaling-stroke"/><polygon points="168.08,189.63 168.08,169.23 150.95,163.15 150.95,183.55" fill="#3a5135" stroke="#1c211e" stroke-opacity=".68" stroke-width="1.35" stroke-linejoin="round" vector-effect="non-scaling-stroke"/><polygon points="376.89,175.07 376.89,110.47 364.89,106.22 364.89,170.81" fill="#3a5135" stroke="#1c211e" stroke-opacity=".68" stroke-width="1.35" stroke-linejoin="round" vector-effect="non-scaling-stroke"/><polygon points="192.23,186.87 192.23,166.47 168.08,169.23 168.08,189.63" fill="#466140" stroke="#1c211e" stroke-opacity=".68" stroke-width="1.35" stroke-linejoin="round" vector-effect="non-scaling-stroke"/><polygon points="395.00,108.40 383.00,104.15 364.89,106.22 376.89,110.47" fill="#4a6644" stroke="#1c211e" stroke-opacity=".68" stroke-width="1.35" stroke-linejoin="round" vector-effect="non-scaling-stroke"/><polygon points="395.00,173.00 395.00,108.40 376.89,110.47 376.89,175.07" fill="#466140" stroke="#1c211e" stroke-opacity=".68" stroke-width="1.35" stroke-linejoin="round" vector-effect="non-scaling-stroke"/><polygon points="279.93,161.20 262.79,155.12 60.51,205.72 77.64,211.80" fill="#344a2f" stroke="#1c211e" stroke-opacity=".68" stroke-width="1.35" stroke-linejoin="round" vector-effect="non-scaling-stroke"/><polygon points="145.44,171.82 128.31,165.74 104.16,168.50 121.29,174.58" fill="#4a6644" stroke="#1c211e" stroke-opacity=".68" stroke-width="1.35" stroke-linejoin="round" vector-effect="non-scaling-stroke"/><polygon points="349.72,179.02 349.72,105.93 337.73,101.67 337.73,174.77" fill="#3a5135" stroke="#1c211e" stroke-opacity=".68" stroke-width="1.35" stroke-linejoin="round" vector-effect="non-scaling-stroke"/><polygon points="367.83,103.86 355.84,99.60 337.73,101.67 349.72,105.93" fill="#4a6644" stroke="#1c211e" stroke-opacity=".68" stroke-width="1.35" stroke-linejoin="round" vector-effect="non-scaling-stroke"/><polygon points="121.29,194.98 121.29,174.58 104.16,168.50 104.16,188.90" fill="#3a5135" stroke="#1c211e" stroke-opacity=".68" stroke-width="1.35" stroke-linejoin="round" vector-effect="non-scaling-stroke"/><polygon points="367.83,176.95 367.83,103.86 349.72,105.93 349.72,179.02" fill="#466140" stroke="#1c211e" stroke-opacity=".68" stroke-width="1.35" stroke-linejoin="round" vector-effect="non-scaling-stroke"/><polygon points="282.09,181.20 279.93,161.20 77.64,211.80 79.81,231.80" fill="#32462d" stroke="#1c211e" stroke-opacity=".68" stroke-width="1.35" stroke-linejoin="round" vector-effect="non-scaling-stroke"/><polygon points="425.43,167.08 379.17,150.66 300.69,159.64 346.95,176.06" fill="#bb9d56" stroke="#1c211e" stroke-opacity=".68" stroke-width="1.35" stroke-linejoin="round" vector-effect="non-scaling-stroke"/><polygon points="145.44,192.22 145.44,171.82 121.29,174.58 121.29,194.98" fill="#466140" stroke="#1c211e" stroke-opacity=".68" stroke-width="1.35" stroke-linejoin="round" vector-effect="non-scaling-stroke"/><polygon points="322.55,182.98 322.55,101.39 310.56,97.13 310.56,178.72" fill="#3a5135" stroke="#1c211e" stroke-opacity=".68" stroke-width="1.35" stroke-linejoin="round" vector-effect="non-scaling-stroke"/><polygon points="340.66,99.32 328.67,95.06 310.56,97.13 322.55,101.39" fill="#4a6644" stroke="#1c211e" stroke-opacity=".68" stroke-width="1.35" stroke-linejoin="round" vector-effect="non-scaling-stroke"/><polygon points="340.66,180.91 340.66,99.32 322.55,101.39 322.55,182.98" fill="#466140" stroke="#1c211e" stroke-opacity=".68" stroke-width="1.35" stroke-linejoin="round" vector-effect="non-scaling-stroke"/><polygon points="346.95,257.65 346.95,176.06 300.69,159.64 300.69,241.23" fill="#967e44" stroke="#1c211e" stroke-opacity=".68" stroke-width="1.35" stroke-linejoin="round" vector-effect="non-scaling-stroke"/><polygon points="421.68,187.39 418.26,186.18 405.43,187.64 408.86,188.86" fill="#ddfdea" stroke="#ffe59a" stroke-opacity=".74" stroke-width="1.35" stroke-linejoin="round" vector-effect="non-scaling-stroke" filter="url(#portrait-glow)"/><polygon points="300.65,209.90 253.77,187.32 80.87,201.89 127.75,224.47" fill="#ccf2e4" stroke="#1c211e" stroke-opacity=".68" stroke-width="1.35" stroke-linejoin="round" vector-effect="non-scaling-stroke"/><polygon points="421.68,201.84 421.68,187.39 408.86,188.86 408.86,203.31" fill="#ddfdea" stroke="#ffe59a" stroke-opacity=".74" stroke-width="1.35" stroke-linejoin="round" vector-effect="non-scaling-stroke" filter="url(#portrait-glow)"/><polygon points="408.86,203.31 408.86,188.86 405.43,187.64 405.43,202.09" fill="#ddfdea" stroke="#ffe59a" stroke-opacity=".74" stroke-width="1.35" stroke-linejoin="round" vector-effect="non-scaling-stroke" filter="url(#portrait-glow)"/><polygon points="425.43,248.67 425.43,167.08 346.95,176.06 346.95,257.65" fill="#b29651" stroke="#1c211e" stroke-opacity=".68" stroke-width="1.35" stroke-linejoin="round" vector-effect="non-scaling-stroke"/><polygon points="79.81,231.80 77.64,211.80 60.51,205.72 62.68,225.72" fill="#293a25" stroke="#1c211e" stroke-opacity=".68" stroke-width="1.35" stroke-linejoin="round" vector-effect="non-scaling-stroke"/><polygon points="437.95,225.21 401.97,212.44 356.70,217.62 392.67,230.39" fill="#d6c9b3" stroke="#1c211e" stroke-opacity=".68" stroke-width="1.35" stroke-linejoin="round" vector-effect="non-scaling-stroke"/><polygon points="370.37,193.26 366.94,192.04 354.12,193.51 357.54,194.73" fill="#ddfdea" stroke="#ffe59a" stroke-opacity=".74" stroke-width="1.35" stroke-linejoin="round" vector-effect="non-scaling-stroke" filter="url(#portrait-glow)"/><polygon points="370.37,207.71 370.37,193.26 357.54,194.73 357.54,209.17" fill="#ddfdea" stroke="#ffe59a" stroke-opacity=".74" stroke-width="1.35" stroke-linejoin="round" vector-effect="non-scaling-stroke" filter="url(#portrait-glow)"/><polygon points="357.54,209.17 357.54,194.73 354.12,193.51 354.12,207.96" fill="#ddfdea" stroke="#ffe59a" stroke-opacity=".74" stroke-width="1.35" stroke-linejoin="round" vector-effect="non-scaling-stroke" filter="url(#portrait-glow)"/><polygon points="392.67,260.99 392.67,230.39 356.70,217.62 356.70,248.22" fill="#ada290" stroke="#1c211e" stroke-opacity=".68" stroke-width="1.35" stroke-linejoin="round" vector-effect="non-scaling-stroke"/><polygon points="127.75,234.67 127.75,224.47 80.87,201.89 80.87,212.09" fill="#a5c4b8" stroke="#1c211e" stroke-opacity=".68" stroke-width="1.35" stroke-linejoin="round" vector-effect="non-scaling-stroke"/><polygon points="437.95,255.81 437.95,225.21 392.67,230.39 392.67,260.99" fill="#ccbfaa" stroke="#1c211e" stroke-opacity=".68" stroke-width="1.35" stroke-linejoin="round" vector-effect="non-scaling-stroke"/><polygon points="300.65,220.09 300.65,209.90 127.75,224.47 127.75,234.67" fill="#c0e4d6" stroke="#1c211e" stroke-opacity=".68" stroke-width="1.35" stroke-linejoin="round" vector-effect="non-scaling-stroke"/></g>
</svg>