<?xml version="1.0" encoding="UTF-8"?>
<svg xmlns="http://www.w3.org/2000/svg" width="640" height="420" viewBox="0 0 640 420" role="img" aria-labelledby="portrait-title">
  <title id="portrait-title">Prismtail Swift front three-quarter model portrait</title>
  <defs>
    <filter id="portrait-glow" x="-80%" y="-80%" width="260%" height="260%"><feGaussianBlur stdDeviation="4" result="blur"/><feMerge><feMergeNode in="blur"/><feMergeNode in="SourceGraphic"/></feMerge></filter>
    <filter id="portrait-shadow" x="-40%" y="-80%" width="180%" height="260%"><feGaussianBlur stdDeviation="8"/></filter>
  </defs>

  <g><polygon points="239.94,141.89 209.62,121.87 167.03,124.49 197.36,144.51" fill="#84dad4" stroke="#1c211e" stroke-opacity=".68" stroke-width="1.35" stroke-linejoin="round" vector-effect="non-scaling-stroke"/><polygon points="197.36,159.05 197.36,144.51 167.03,124.49 167.03,139.03" fill="#69b0ab" stroke="#1c211e" stroke-opacity=".68" stroke-width="1.35" stroke-linejoin="round" vector-effect="non-scaling-stroke"/><polygon points="214.07,144.01 162.79,125.81 124.07,130.24 175.35,148.44" fill="#ffdd93" stroke="#ffe59a" stroke-opacity=".74" stroke-width="1.35" stroke-linejoin="round" vector-effect="non-scaling-stroke" filter="url(#portrait-glow)"/><polygon points="175.35,162.98 175.35,148.44 124.07,130.24 124.07,144.78" fill="#ffdd93" stroke="#ffe59a" stroke-opacity=".74" stroke-width="1.35" stroke-linejoin="round" vector-effect="non-scaling-stroke" filter="url(#portrait-glow)"/><polygon points="186.03,145.81 116.27,130.30 83.27,136.32 153.03,151.83" fill="#84dad4" stroke="#1c211e" stroke-opacity=".68" stroke-width="1.35" stroke-linejoin="round" vector-effect="non-scaling-stroke"/><polygon points="239.94,156.43 239.94,141.89 197.36,144.51 197.36,159.05" fill="#7acbc4" stroke="#1c211e" stroke-opacity=".68" stroke-width="1.35" stroke-linejoin="round" vector-effect="non-scaling-stroke"/><polygon points="153.03,166.36 153.03,151.83 83.27,136.32 83.27,150.86" fill="#69b0ab" stroke="#1c211e" stroke-opacity=".68" stroke-width="1.35" stroke-linejoin="round" vector-effect="non-scaling-stroke"/><polygon points="214.07,158.55 214.07,144.01 175.35,148.44 175.35,162.98" fill="#ffdd93" stroke="#ffe59a" stroke-opacity=".74" stroke-width="1.35" stroke-linejoin="round" vector-effect="non-scaling-stroke" filter="url(#portrait-glow)"/><polygon points="186.03,160.34 186.03,145.81 153.03,151.83 153.03,166.36" fill="#7fd3cd" stroke="#1c211e" stroke-opacity=".68" stroke-width="1.35" stroke-linejoin="round" vector-effect="non-scaling-stroke"/><polygon points="292.99,165.77 177.00,124.60 142.58,128.53 258.57,169.70" fill="#394682" stroke="#1c211e" stroke-opacity=".68" stroke-width="1.35" stroke-linejoin="round" vector-effect="non-scaling-stroke"/><polygon points="258.57,198.78 258.57,169.70 142.58,128.53 142.58,157.61" fill="#2c3768" stroke="#1c211e" stroke-opacity=".68" stroke-width="1.35" stroke-linejoin="round" vector-effect="non-scaling-stroke"/><polygon points="489.00,183.56 445.64,165.71 432.26,163.68 475.61,181.53" fill="#3a4784" stroke="#1c211e" stroke-opacity=".68" stroke-width="1.35" stroke-linejoin="round" vector-effect="non-scaling-stroke"/><polygon points="472.80,196.04 475.61,181.53 432.26,163.68 429.44,178.19" fill="#2c3768" stroke="#1c211e" stroke-opacity=".68" stroke-width="1.35" stroke-linejoin="round" vector-effect="non-scaling-stroke"/><polygon points="292.99,194.84 292.99,165.77 258.57,169.70 258.57,198.78" fill="#36427b" stroke="#1c211e" stroke-opacity=".68" stroke-width="1.35" stroke-linejoin="round" vector-effect="non-scaling-stroke"/><polygon points="486.18,198.07 489.00,183.56 475.61,181.53 472.80,196.04" fill="#36417a" stroke="#1c211e" stroke-opacity=".68" stroke-width="1.35" stroke-linejoin="round" vector-effect="non-scaling-stroke"/><polygon points="592.00,212.76 491.00,176.92 313.40,152.49 414.40,188.34" fill="#86ddd7" stroke="#1c211e" stroke-opacity=".68" stroke-width="1.35" stroke-linejoin="round" vector-effect="non-scaling-stroke"/><polygon points="470.00,186.26 426.65,168.41 413.27,166.38 456.62,184.23" fill="#3a4784" stroke="#1c211e" stroke-opacity=".68" stroke-width="1.35" stroke-linejoin="round" vector-effect="non-scaling-stroke"/><polygon points="453.80,198.74 456.62,184.23 413.27,166.38 410.45,180.88" fill="#2c3768" stroke="#1c211e" stroke-opacity=".68" stroke-width="1.35" stroke-linejoin="round" vector-effect="non-scaling-stroke"/><polygon points="411.82,201.64 414.40,188.34 313.40,152.49 310.82,165.79" fill="#69b0ab" stroke="#1c211e" stroke-opacity=".68" stroke-width="1.35" stroke-linejoin="round" vector-effect="non-scaling-stroke"/><polygon points="467.18,200.77 470.00,186.26 456.62,184.23 453.80,198.74" fill="#36417a" stroke="#1c211e" stroke-opacity=".68" stroke-width="1.35" stroke-linejoin="round" vector-effect="non-scaling-stroke"/><polygon points="406.00,172.42 316.48,140.64 231.56,150.35 321.07,182.13" fill="#4a59a1" stroke="#1c211e" stroke-opacity=".68" stroke-width="1.35" stroke-linejoin="round" vector-effect="non-scaling-stroke"/><polygon points="451.01,188.96 407.65,171.10 394.27,169.07 437.62,186.93" fill="#3a4784" stroke="#1c211e" stroke-opacity=".68" stroke-width="1.35" stroke-linejoin="round" vector-effect="non-scaling-stroke"/><polygon points="589.42,226.06 592.00,212.76 414.40,188.34 411.82,201.64" fill="#7dd0c9" stroke="#1c211e" stroke-opacity=".68" stroke-width="1.35" stroke-linejoin="round" vector-effect="non-scaling-stroke"/><polygon points="434.81,201.43 437.62,186.93 394.27,169.07 391.45,183.58" fill="#2c3768" stroke="#1c211e" stroke-opacity=".68" stroke-width="1.35" stroke-linejoin="round" vector-effect="non-scaling-stroke"/><polygon points="321.07,264.11 321.07,182.13 231.56,150.35 231.56,232.34" fill="#3a4681" stroke="#1c211e" stroke-opacity=".68" stroke-width="1.35" stroke-linejoin="round" vector-effect="non-scaling-stroke"/><polygon points="176.69,215.71 110.66,200.45 99.03,205.34 165.06,220.60" fill="#38447f" stroke="#1c211e" stroke-opacity=".68" stroke-width="1.35" stroke-linejoin="round" vector-effect="non-scaling-stroke"/><polygon points="167.88,234.47 165.06,220.60 99.03,205.34 101.85,219.21" fill="#2c3768" stroke="#1c211e" stroke-opacity=".68" stroke-width="1.35" stroke-linejoin="round" vector-effect="non-scaling-stroke"/><polygon points="448.19,203.47 451.01,188.96 437.62,186.93 434.81,201.43" fill="#36417a" stroke="#1c211e" stroke-opacity=".68" stroke-width="1.35" stroke-linejoin="round" vector-effect="non-scaling-stroke"/><polygon points="326.60,198.38 225.60,162.53 48.00,227.57 149.00,263.42" fill="#80d5cf" stroke="#1c211e" stroke-opacity=".68" stroke-width="1.35" stroke-linejoin="round" vector-effect="non-scaling-stroke"/><polygon points="244.52,208.48 178.49,193.22 166.86,198.11 232.89,213.37" fill="#38447f" stroke="#1c211e" stroke-opacity=".68" stroke-width="1.35" stroke-linejoin="round" vector-effect="non-scaling-stroke"/><polygon points="406.00,254.40 406.00,172.42 321.07,182.13 321.07,264.11" fill="#465499" stroke="#1c211e" stroke-opacity=".68" stroke-width="1.35" stroke-linejoin="round" vector-effect="non-scaling-stroke"/><polygon points="235.71,227.23 232.89,213.37 166.86,198.11 169.68,211.97" fill="#2c3768" stroke="#1c211e" stroke-opacity=".68" stroke-width="1.35" stroke-linejoin="round" vector-effect="non-scaling-stroke"/><polygon points="312.35,201.25 246.32,185.99 234.69,190.88 300.73,206.14" fill="#38447f" stroke="#1c211e" stroke-opacity=".68" stroke-width="1.35" stroke-linejoin="round" vector-effect="non-scaling-stroke"/><polygon points="179.51,229.57 176.69,215.71 165.06,220.60 167.88,234.47" fill="#37437d" stroke="#1c211e" stroke-opacity=".68" stroke-width="1.35" stroke-linejoin="round" vector-effect="non-scaling-stroke"/><polygon points="303.54,220.00 300.73,206.14 234.69,190.88 237.51,204.74" fill="#2c3768" stroke="#1c211e" stroke-opacity=".68" stroke-width="1.35" stroke-linejoin="round" vector-effect="non-scaling-stroke"/><polygon points="247.34,222.34 244.52,208.48 232.89,213.37 235.71,227.23" fill="#37437d" stroke="#1c211e" stroke-opacity=".68" stroke-width="1.35" stroke-linejoin="round" vector-effect="non-scaling-stroke"/><polygon points="151.58,276.13 149.00,263.42 48.00,227.57 50.58,240.28" fill="#69b0ab" stroke="#1c211e" stroke-opacity=".68" stroke-width="1.35" stroke-linejoin="round" vector-effect="non-scaling-stroke"/><polygon points="457.41,161.60 406.92,143.68 309.86,154.78 360.35,172.70" fill="#394682" stroke="#1c211e" stroke-opacity=".68" stroke-width="1.35" stroke-linejoin="round" vector-effect="non-scaling-stroke"/><polygon points="315.17,215.11 312.35,201.25 300.73,206.14 303.54,220.00" fill="#37437d" stroke="#1c211e" stroke-opacity=".68" stroke-width="1.35" stroke-linejoin="round" vector-effect="non-scaling-stroke"/><polygon points="360.35,268.35 360.35,172.70 309.86,154.78 309.86,250.43" fill="#2c3768" stroke="#1c211e" stroke-opacity=".68" stroke-width="1.35" stroke-linejoin="round" vector-effect="non-scaling-stroke"/><polygon points="450.22,190.15 445.95,188.63 432.80,190.14 437.07,191.65" fill="#ffdd93" stroke="#ffe59a" stroke-opacity=".74" stroke-width="1.35" stroke-linejoin="round" vector-effect="non-scaling-stroke" filter="url(#portrait-glow)"/><polygon points="437.07,206.46 437.07,191.65 432.80,190.14 432.80,204.94" fill="#ffdd93" stroke="#ffe59a" stroke-opacity=".74" stroke-width="1.35" stroke-linejoin="round" vector-effect="non-scaling-stroke" filter="url(#portrait-glow)"/><polygon points="450.22,204.95 450.22,190.15 437.07,191.65 437.07,206.46" fill="#ffdd93" stroke="#ffe59a" stroke-opacity=".74" stroke-width="1.35" stroke-linejoin="round" vector-effect="non-scaling-stroke" filter="url(#portrait-glow)"/><polygon points="457.41,257.26 457.41,161.60 360.35,172.70 360.35,268.35" fill="#36427b" stroke="#1c211e" stroke-opacity=".68" stroke-width="1.35" stroke-linejoin="round" vector-effect="non-scaling-stroke"/><polygon points="329.18,211.09 326.60,198.38 149.00,263.42 151.58,276.13" fill="#7dd0c9" stroke="#1c211e" stroke-opacity=".68" stroke-width="1.35" stroke-linejoin="round" vector-effect="non-scaling-stroke"/><polygon points="455.50,228.04 418.78,215.01 378.33,219.63 415.06,232.67" fill="#84dad4" stroke="#1c211e" stroke-opacity=".68" stroke-width="1.35" stroke-linejoin="round" vector-effect="non-scaling-stroke"/><polygon points="415.06,269.11 415.06,232.67 378.33,219.63 378.33,256.07" fill="#69b0ab" stroke="#1c211e" stroke-opacity=".68" stroke-width="1.35" stroke-linejoin="round" vector-effect="non-scaling-stroke"/><polygon points="389.56,197.09 385.28,195.57 372.14,197.07 376.41,198.59" fill="#ffdd93" stroke="#ffe59a" stroke-opacity=".74" stroke-width="1.35" stroke-linejoin="round" vector-effect="non-scaling-stroke" filter="url(#portrait-glow)"/><polygon points="376.41,213.39 376.41,198.59 372.14,197.07 372.14,211.88" fill="#ffdd93" stroke="#ffe59a" stroke-opacity=".74" stroke-width="1.35" stroke-linejoin="round" vector-effect="non-scaling-stroke" filter="url(#portrait-glow)"/><polygon points="389.56,211.89 389.56,197.09 376.41,198.59 376.41,213.39" fill="#ffdd93" stroke="#ffe59a" stroke-opacity=".74" stroke-width="1.35" stroke-linejoin="round" vector-effect="non-scaling-stroke" filter="url(#portrait-glow)"/><polygon points="455.50,264.48 455.50,228.04 415.06,232.67 415.06,269.11" fill="#7dd0c9" stroke="#1c211e" stroke-opacity=".68" stroke-width="1.35" stroke-linejoin="round" vector-effect="non-scaling-stroke"/></g>
</svg>