<?xml version="1.0" encoding="UTF-8"?>
<svg xmlns="http://www.w3.org/2000/svg" width="640" height="420" viewBox="0 0 640 420" role="img" aria-labelledby="portrait-title">
  <title id="portrait-title">Rattlekin front three-quarter model portrait</title>
  <defs>
    <filter id="portrait-glow" x="-80%" y="-80%" width="260%" height="260%"><feGaussianBlur stdDeviation="4" result="blur"/><feMerge><feMergeNode in="blur"/><feMergeNode in="SourceGraphic"/></feMerge></filter>
    <filter id="portrait-shadow" x="-40%" y="-80%" width="180%" height="260%"><feGaussianBlur stdDeviation="8"/></filter>
  </defs>
  <ellipse cx="343.05" cy="387.89" rx="130.52" ry="13" fill="#0c120f" opacity=".32" filter="url(#portrait-shadow)"/>

  <g><polygon points="389.57,343.43 357.57,332.08 319.00,336.49 350.99,347.84" fill="#79705e" stroke="#1c211e" stroke-opacity=".68" stroke-width="1.35" stroke-linejoin="round" vector-effect="non-scaling-stroke"/><polygon points="342.41,348.00 342.41,217.67 327.26,212.29 327.26,342.62" fill="#a59e8d" stroke="#1c211e" stroke-opacity=".68" stroke-width="1.35" stroke-linejoin="round" vector-effect="non-scaling-stroke"/><polygon points="377.82,236.23 377.82,115.93 366.03,111.74 366.03,232.04" fill="#a59e8d" stroke="#1c211e" stroke-opacity=".68" stroke-width="1.35" stroke-linejoin="round" vector-effect="non-scaling-stroke"/><polygon points="350.99,367.89 350.99,347.84 319.00,336.49 319.00,356.54" fill="#61594b" stroke="#1c211e" stroke-opacity=".68" stroke-width="1.35" stroke-linejoin="round" vector-effect="non-scaling-stroke"/><polygon points="398.59,233.85 398.59,113.55 377.82,115.93 377.82,236.23" fill="#c3bba7" stroke="#1c211e" stroke-opacity=".68" stroke-width="1.35" stroke-linejoin="round" vector-effect="non-scaling-stroke"/><polygon points="366.15,345.29 366.15,214.96 342.41,217.67 342.41,348.00" fill="#c3bba7" stroke="#1c211e" stroke-opacity=".68" stroke-width="1.35" stroke-linejoin="round" vector-effect="non-scaling-stroke"/><polygon points="366.15,214.96 350.99,209.58 327.26,212.29 342.41,217.67" fill="#cdc4af" stroke="#1c211e" stroke-opacity=".68" stroke-width="1.35" stroke-linejoin="round" vector-effect="non-scaling-stroke"/><polygon points="398.59,113.55 386.80,109.37 366.03,111.74 377.82,115.93" fill="#cdc4af" stroke="#1c211e" stroke-opacity=".68" stroke-width="1.35" stroke-linejoin="round" vector-effect="non-scaling-stroke"/><polygon points="410.64,94.30 389.59,86.82 348.05,91.57 369.10,99.05" fill="#a59e8d" stroke="#1c211e" stroke-opacity=".68" stroke-width="1.35" stroke-linejoin="round" vector-effect="non-scaling-stroke"/><polygon points="389.57,363.48 389.57,343.43 350.99,347.84 350.99,367.89" fill="#736a5a" stroke="#1c211e" stroke-opacity=".68" stroke-width="1.35" stroke-linejoin="round" vector-effect="non-scaling-stroke"/><polygon points="369.10,135.80 369.10,99.05 348.05,91.57 348.05,128.33" fill="#857f71" stroke="#1c211e" stroke-opacity=".68" stroke-width="1.35" stroke-linejoin="round" vector-effect="non-scaling-stroke"/><polygon points="336.16,349.54 304.16,338.18 265.59,342.59 297.59,353.95" fill="#79705e" stroke="#1c211e" stroke-opacity=".68" stroke-width="1.35" stroke-linejoin="round" vector-effect="non-scaling-stroke"/><polygon points="410.64,131.06 410.64,94.30 369.10,99.05 369.10,135.80" fill="#9d9686" stroke="#1c211e" stroke-opacity=".68" stroke-width="1.35" stroke-linejoin="round" vector-effect="non-scaling-stroke"/><polygon points="364.63,186.15 337.68,176.59 275.37,183.71 302.32,193.28" fill="#a59e8d" stroke="#1c211e" stroke-opacity=".68" stroke-width="1.35" stroke-linejoin="round" vector-effect="non-scaling-stroke"/><polygon points="289.01,354.11 289.01,223.78 273.85,218.40 273.85,348.73" fill="#a59e8d" stroke="#1c211e" stroke-opacity=".68" stroke-width="1.35" stroke-linejoin="round" vector-effect="non-scaling-stroke"/><polygon points="308.77,210.89 308.77,83.90 296.99,79.72 296.99,206.70" fill="#61594b" stroke="#1c211e" stroke-opacity=".68" stroke-width="1.35" stroke-linejoin="round" vector-effect="non-scaling-stroke"/><polygon points="297.59,374.00 297.59,353.95 265.59,342.59 265.59,362.64" fill="#61594b" stroke="#1c211e" stroke-opacity=".68" stroke-width="1.35" stroke-linejoin="round" vector-effect="non-scaling-stroke"/><polygon points="380.14,156.16 366.67,151.37 259.86,163.59 273.33,168.37" fill="#cdc4af" stroke="#1c211e" stroke-opacity=".68" stroke-width="1.35" stroke-linejoin="round" vector-effect="non-scaling-stroke"/><polygon points="329.54,208.51 329.54,81.53 308.77,83.90 308.77,210.89" fill="#736a5a" stroke="#1c211e" stroke-opacity=".68" stroke-width="1.35" stroke-linejoin="round" vector-effect="non-scaling-stroke"/><polygon points="312.74,351.39 312.74,221.07 289.01,223.78 289.01,354.11" fill="#c3bba7" stroke="#1c211e" stroke-opacity=".68" stroke-width="1.35" stroke-linejoin="round" vector-effect="non-scaling-stroke"/><polygon points="312.74,221.07 297.59,215.69 273.85,218.40 289.01,223.78" fill="#cdc4af" stroke="#1c211e" stroke-opacity=".68" stroke-width="1.35" stroke-linejoin="round" vector-effect="non-scaling-stroke"/><polygon points="329.54,81.53 317.75,77.34 296.99,79.72 308.77,83.90" fill="#79705e" stroke="#1c211e" stroke-opacity=".68" stroke-width="1.35" stroke-linejoin="round" vector-effect="non-scaling-stroke"/><polygon points="374.21,130.10 360.74,125.32 265.79,136.17 279.26,140.96" fill="#cdc4af" stroke="#1c211e" stroke-opacity=".68" stroke-width="1.35" stroke-linejoin="round" vector-effect="non-scaling-stroke"/><polygon points="302.32,246.75 302.32,193.28 275.37,183.71 275.37,237.18" fill="#857f71" stroke="#1c211e" stroke-opacity=".68" stroke-width="1.35" stroke-linejoin="round" vector-effect="non-scaling-stroke"/><polygon points="380.14,169.52 380.14,156.16 273.33,168.37 273.33,181.74" fill="#c3bba7" stroke="#1c211e" stroke-opacity=".68" stroke-width="1.35" stroke-linejoin="round" vector-effect="non-scaling-stroke"/><polygon points="368.27,104.05 354.80,99.26 271.73,108.76 285.20,113.54" fill="#cdc4af" stroke="#1c211e" stroke-opacity=".68" stroke-width="1.35" stroke-linejoin="round" vector-effect="non-scaling-stroke"/><polygon points="364.63,239.62 364.63,186.15 302.32,193.28 302.32,246.75" fill="#9d9686" stroke="#1c211e" stroke-opacity=".68" stroke-width="1.35" stroke-linejoin="round" vector-effect="non-scaling-stroke"/><polygon points="374.21,143.47 374.21,130.10 279.26,140.96 279.26,154.32" fill="#c3bba7" stroke="#1c211e" stroke-opacity=".68" stroke-width="1.35" stroke-linejoin="round" vector-effect="non-scaling-stroke"/><polygon points="336.16,369.59 336.16,349.54 297.59,353.95 297.59,374.00" fill="#736a5a" stroke="#1c211e" stroke-opacity=".68" stroke-width="1.35" stroke-linejoin="round" vector-effect="non-scaling-stroke"/><polygon points="368.27,117.41 368.27,104.05 285.20,113.54 285.20,126.91" fill="#c3bba7" stroke="#1c211e" stroke-opacity=".68" stroke-width="1.35" stroke-linejoin="round" vector-effect="non-scaling-stroke"/><polygon points="273.33,181.74 273.33,168.37 259.86,163.59 259.86,176.95" fill="#a59e8d" stroke="#1c211e" stroke-opacity=".68" stroke-width="1.35" stroke-linejoin="round" vector-effect="non-scaling-stroke"/><polygon points="279.26,154.32 279.26,140.96 265.79,136.17 265.79,149.54" fill="#a59e8d" stroke="#1c211e" stroke-opacity=".68" stroke-width="1.35" stroke-linejoin="round" vector-effect="non-scaling-stroke"/><polygon points="383.63,38.35 343.22,24.00 263.10,33.16 303.52,47.51" fill="#cdc4af" stroke="#1c211e" stroke-opacity=".68" stroke-width="1.35" stroke-linejoin="round" vector-effect="non-scaling-stroke"/><polygon points="285.20,126.91 285.20,113.54 271.73,108.76 271.73,122.13" fill="#a59e8d" stroke="#1c211e" stroke-opacity=".68" stroke-width="1.35" stroke-linejoin="round" vector-effect="non-scaling-stroke"/><polygon points="253.20,250.48 253.20,130.17 241.41,125.99 241.41,246.29" fill="#a59e8d" stroke="#1c211e" stroke-opacity=".68" stroke-width="1.35" stroke-linejoin="round" vector-effect="non-scaling-stroke"/><polygon points="374.73,99.51 356.21,92.94 293.90,100.06 312.42,106.64" fill="#79705e" stroke="#1c211e" stroke-opacity=".68" stroke-width="1.35" stroke-linejoin="round" vector-effect="non-scaling-stroke"/><polygon points="273.97,248.10 273.97,127.80 253.20,130.17 253.20,250.48" fill="#c3bba7" stroke="#1c211e" stroke-opacity=".68" stroke-width="1.35" stroke-linejoin="round" vector-effect="non-scaling-stroke"/><polygon points="273.97,127.80 262.18,123.62 241.41,125.99 253.20,130.17" fill="#cdc4af" stroke="#1c211e" stroke-opacity=".68" stroke-width="1.35" stroke-linejoin="round" vector-effect="non-scaling-stroke"/><polygon points="303.52,131.05 303.52,47.51 263.10,33.16 263.10,116.70" fill="#a59e8d" stroke="#1c211e" stroke-opacity=".68" stroke-width="1.35" stroke-linejoin="round" vector-effect="non-scaling-stroke"/><polygon points="291.95,107.87 270.90,100.39 229.36,105.14 250.41,112.62" fill="#a59e8d" stroke="#1c211e" stroke-opacity=".68" stroke-width="1.35" stroke-linejoin="round" vector-effect="non-scaling-stroke"/><polygon points="374.73,122.91 374.73,99.51 312.42,106.64 312.42,130.03" fill="#736a5a" stroke="#1c211e" stroke-opacity=".68" stroke-width="1.35" stroke-linejoin="round" vector-effect="non-scaling-stroke"/><polygon points="380.00,57.25 375.79,55.75 357.99,57.79 362.20,59.28" fill="#6f6951" stroke="#ffe59a" stroke-opacity=".74" stroke-width="1.35" stroke-linejoin="round" vector-effect="non-scaling-stroke" filter="url(#portrait-glow)"/><polygon points="312.42,130.03 312.42,106.64 293.90,100.06 293.90,123.46" fill="#61594b" stroke="#1c211e" stroke-opacity=".68" stroke-width="1.35" stroke-linejoin="round" vector-effect="non-scaling-stroke"/><polygon points="250.41,149.37 250.41,112.62 229.36,105.14 229.36,141.90" fill="#857f71" stroke="#1c211e" stroke-opacity=".68" stroke-width="1.35" stroke-linejoin="round" vector-effect="non-scaling-stroke"/><polygon points="380.00,77.30 380.00,57.25 362.20,59.28 362.20,79.33" fill="#6f6951" stroke="#ffe59a" stroke-opacity=".74" stroke-width="1.35" stroke-linejoin="round" vector-effect="non-scaling-stroke" filter="url(#portrait-glow)"/><polygon points="362.20,79.33 362.20,59.28 357.99,57.79 357.99,77.84" fill="#6f6951" stroke="#ffe59a" stroke-opacity=".74" stroke-width="1.35" stroke-linejoin="round" vector-effect="non-scaling-stroke" filter="url(#portrait-glow)"/><polygon points="383.63,121.89 383.63,38.35 303.52,47.51 303.52,131.05" fill="#c3bba7" stroke="#1c211e" stroke-opacity=".68" stroke-width="1.35" stroke-linejoin="round" vector-effect="non-scaling-stroke"/><polygon points="368.32,91.67 353.16,86.29 320.52,90.02 335.68,95.40" fill="#a59e8d" stroke="#1c211e" stroke-opacity=".68" stroke-width="1.35" stroke-linejoin="round" vector-effect="non-scaling-stroke"/><polygon points="291.95,144.63 291.95,107.87 250.41,112.62 250.41,149.37" fill="#9d9686" stroke="#1c211e" stroke-opacity=".68" stroke-width="1.35" stroke-linejoin="round" vector-effect="non-scaling-stroke"/><polygon points="335.68,110.44 335.68,95.40 320.52,90.02 320.52,105.06" fill="#857f71" stroke="#1c211e" stroke-opacity=".68" stroke-width="1.35" stroke-linejoin="round" vector-effect="non-scaling-stroke"/><polygon points="368.32,106.70 368.32,91.67 335.68,95.40 335.68,110.44" fill="#9d9686" stroke="#1c211e" stroke-opacity=".68" stroke-width="1.35" stroke-linejoin="round" vector-effect="non-scaling-stroke"/><polygon points="332.53,62.67 328.32,61.18 310.52,63.22 314.73,64.71" fill="#6f6951" stroke="#ffe59a" stroke-opacity=".74" stroke-width="1.35" stroke-linejoin="round" vector-effect="non-scaling-stroke" filter="url(#portrait-glow)"/><polygon points="332.53,82.73 332.53,62.67 314.73,64.71 314.73,84.76" fill="#6f6951" stroke="#ffe59a" stroke-opacity=".74" stroke-width="1.35" stroke-linejoin="round" vector-effect="non-scaling-stroke" filter="url(#portrait-glow)"/><polygon points="314.73,84.76 314.73,64.71 310.52,63.22 310.52,83.27" fill="#6f6951" stroke="#ffe59a" stroke-opacity=".74" stroke-width="1.35" stroke-linejoin="round" vector-effect="non-scaling-stroke" filter="url(#portrait-glow)"/><polygon points="346.82,257.53 274.41,231.83 247.71,234.88 320.12,260.58" fill="#79705e" stroke="#1c211e" stroke-opacity=".68" stroke-width="1.35" stroke-linejoin="round" vector-effect="non-scaling-stroke"/><polygon points="320.12,290.66 320.12,260.58 247.71,234.88 247.71,264.96" fill="#61594b" stroke="#1c211e" stroke-opacity=".68" stroke-width="1.35" stroke-linejoin="round" vector-effect="non-scaling-stroke"/><polygon points="391.88,292.98 377.93,268.94 366.14,264.75 380.09,288.80" fill="#61594b" stroke="#1c211e" stroke-opacity=".68" stroke-width="1.35" stroke-linejoin="round" vector-effect="non-scaling-stroke"/><polygon points="346.82,287.60 346.82,257.53 320.12,260.58 320.12,290.66" fill="#736a5a" stroke="#1c211e" stroke-opacity=".68" stroke-width="1.35" stroke-linejoin="round" vector-effect="non-scaling-stroke"/><polygon points="393.10,256.72 381.31,252.54 366.14,264.75 377.93,268.94" fill="#706757" stroke="#1c211e" stroke-opacity=".68" stroke-width="1.35" stroke-linejoin="round" vector-effect="non-scaling-stroke"/><polygon points="407.06,280.77 393.10,256.72 377.93,268.94 391.88,292.98" fill="#736a5a" stroke="#1c211e" stroke-opacity=".68" stroke-width="1.35" stroke-linejoin="round" vector-effect="non-scaling-stroke"/><polygon points="391.41,261.52 372.89,254.94 295.74,263.77 314.27,270.34" fill="#cdc4af" stroke="#1c211e" stroke-opacity=".68" stroke-width="1.35" stroke-linejoin="round" vector-effect="non-scaling-stroke"/><polygon points="396.02,244.50 362.34,232.54 291.13,240.69 324.81,252.64" fill="#a59e8d" stroke="#1c211e" stroke-opacity=".68" stroke-width="1.35" stroke-linejoin="round" vector-effect="non-scaling-stroke"/><polygon points="391.41,291.60 391.41,261.52 314.27,270.34 314.27,300.42" fill="#c3bba7" stroke="#1c211e" stroke-opacity=".68" stroke-width="1.35" stroke-linejoin="round" vector-effect="non-scaling-stroke"/><polygon points="324.81,322.82 324.81,252.64 291.13,240.69 291.13,310.86" fill="#857f71" stroke="#1c211e" stroke-opacity=".68" stroke-width="1.35" stroke-linejoin="round" vector-effect="non-scaling-stroke"/><polygon points="314.27,300.42 314.27,270.34 295.74,263.77 295.74,293.84" fill="#a59e8d" stroke="#1c211e" stroke-opacity=".68" stroke-width="1.35" stroke-linejoin="round" vector-effect="non-scaling-stroke"/><polygon points="307.06,302.68 291.88,293.94 280.09,289.75 295.27,298.50" fill="#61594b" stroke="#1c211e" stroke-opacity=".68" stroke-width="1.35" stroke-linejoin="round" vector-effect="non-scaling-stroke"/><polygon points="396.02,314.67 396.02,244.50 324.81,252.64 324.81,322.82" fill="#9d9686" stroke="#1c211e" stroke-opacity=".68" stroke-width="1.35" stroke-linejoin="round" vector-effect="non-scaling-stroke"/><polygon points="291.88,293.94 305.84,266.70 294.05,262.52 280.09,289.75" fill="#635b4d" stroke="#1c211e" stroke-opacity=".68" stroke-width="1.35" stroke-linejoin="round" vector-effect="non-scaling-stroke"/><polygon points="307.06,302.68 321.02,275.45 305.84,266.70 291.88,293.94" fill="#736a5a" stroke="#1c211e" stroke-opacity=".68" stroke-width="1.35" stroke-linejoin="round" vector-effect="non-scaling-stroke"/></g>
</svg>