<?xml version="1.0" encoding="UTF-8"?>
<svg xmlns="http://www.w3.org/2000/svg" width="640" height="420" viewBox="0 0 640 420" role="img" aria-labelledby="portrait-title">
  <title id="portrait-title">Reedneedle front three-quarter model portrait</title>
  <defs>
    <filter id="portrait-glow" x="-80%" y="-80%" width="260%" height="260%"><feGaussianBlur stdDeviation="4" result="blur"/><feMerge><feMergeNode in="blur"/><feMergeNode in="SourceGraphic"/></feMerge></filter>
    <filter id="portrait-shadow" x="-40%" y="-80%" width="180%" height="260%"><feGaussianBlur stdDeviation="8"/></filter>
  </defs>

  <g><polygon points="209.93,251.82 179.63,102.71 97.26,73.47 127.56,222.58" fill="#94a468" stroke="#1c211e" stroke-opacity=".68" stroke-width="1.35" stroke-linejoin="round" vector-effect="non-scaling-stroke"/><polygon points="219.66,88.05 137.29,58.81 97.26,73.47 179.63,102.71" fill="#b4c680" stroke="#1c211e" stroke-opacity=".68" stroke-width="1.35" stroke-linejoin="round" vector-effect="non-scaling-stroke"/><polygon points="200.69,100.30 118.32,71.06 78.29,65.56 160.66,94.80" fill="#bbce85" stroke="#1c211e" stroke-opacity=".68" stroke-width="1.35" stroke-linejoin="round" vector-effect="non-scaling-stroke"/><polygon points="130.37,250.84 160.66,94.80 78.29,65.56 48.00,221.60" fill="#94a468" stroke="#1c211e" stroke-opacity=".68" stroke-width="1.35" stroke-linejoin="round" vector-effect="non-scaling-stroke"/><polygon points="249.95,237.16 219.66,88.05 179.63,102.71 209.93,251.82" fill="#afc17c" stroke="#1c211e" stroke-opacity=".68" stroke-width="1.35" stroke-linejoin="round" vector-effect="non-scaling-stroke"/><polygon points="248.09,178.87 162.13,148.36 134.03,151.57 219.98,182.08" fill="#4f6b3f" stroke="#1c211e" stroke-opacity=".68" stroke-width="1.35" stroke-linejoin="round" vector-effect="non-scaling-stroke"/><polygon points="219.98,210.19 219.98,182.08 134.03,151.57 134.03,179.68" fill="#3e5531" stroke="#1c211e" stroke-opacity=".68" stroke-width="1.35" stroke-linejoin="round" vector-effect="non-scaling-stroke"/><polygon points="170.40,256.34 200.69,100.30 160.66,94.80 130.37,250.84" fill="#afc17c" stroke="#1c211e" stroke-opacity=".68" stroke-width="1.35" stroke-linejoin="round" vector-effect="non-scaling-stroke"/><polygon points="248.09,206.97 248.09,178.87 219.98,182.08 219.98,210.19" fill="#4b653c" stroke="#1c211e" stroke-opacity=".68" stroke-width="1.35" stroke-linejoin="round" vector-effect="non-scaling-stroke"/><polygon points="480.16,233.30 401.06,214.24 303.97,198.94 383.07,218.00" fill="#bacd84" stroke="#1c211e" stroke-opacity=".68" stroke-width="1.35" stroke-linejoin="round" vector-effect="non-scaling-stroke"/><polygon points="324.89,316.59 324.89,245.53 260.43,222.65 260.43,293.71" fill="#94a468" stroke="#1c211e" stroke-opacity=".68" stroke-width="1.35" stroke-linejoin="round" vector-effect="non-scaling-stroke"/><polygon points="346.98,243.00 282.51,220.12 260.43,222.65 324.89,245.53" fill="#b8cb83" stroke="#1c211e" stroke-opacity=".68" stroke-width="1.35" stroke-linejoin="round" vector-effect="non-scaling-stroke"/><polygon points="378.77,240.25 383.07,218.00 303.97,198.94 299.66,221.18" fill="#94a468" stroke="#1c211e" stroke-opacity=".68" stroke-width="1.35" stroke-linejoin="round" vector-effect="non-scaling-stroke"/><polygon points="475.85,255.55 480.16,233.30 383.07,218.00 378.77,240.25" fill="#b2c47e" stroke="#1c211e" stroke-opacity=".68" stroke-width="1.35" stroke-linejoin="round" vector-effect="non-scaling-stroke"/><polygon points="479.38,245.61 210.78,150.27 160.59,156.01 429.19,251.34" fill="#638650" stroke="#1c211e" stroke-opacity=".68" stroke-width="1.35" stroke-linejoin="round" vector-effect="non-scaling-stroke"/><polygon points="451.61,238.76 209.87,152.96 188.36,155.42 430.10,241.22" fill="#b8cb83" stroke="#1c211e" stroke-opacity=".68" stroke-width="1.35" stroke-linejoin="round" vector-effect="non-scaling-stroke"/><polygon points="430.10,280.96 430.10,241.22 188.36,155.42 188.36,195.15" fill="#94a468" stroke="#1c211e" stroke-opacity=".68" stroke-width="1.35" stroke-linejoin="round" vector-effect="non-scaling-stroke"/><polygon points="358.58,88.59 283.91,79.95 258.67,82.84 333.34,91.48" fill="#4e693e" stroke="#1c211e" stroke-opacity=".68" stroke-width="1.35" stroke-linejoin="round" vector-effect="non-scaling-stroke"/><polygon points="340.63,214.01 333.34,91.48 258.67,82.84 265.96,205.37" fill="#3e5531" stroke="#1c211e" stroke-opacity=".68" stroke-width="1.35" stroke-linejoin="round" vector-effect="non-scaling-stroke"/><polygon points="429.19,299.80 429.19,251.34 160.59,156.01 160.59,204.46" fill="#4f6b3f" stroke="#1c211e" stroke-opacity=".68" stroke-width="1.35" stroke-linejoin="round" vector-effect="non-scaling-stroke"/><polygon points="346.98,314.07 346.98,243.00 324.89,245.53 324.89,316.59" fill="#afc17c" stroke="#1c211e" stroke-opacity=".68" stroke-width="1.35" stroke-linejoin="round" vector-effect="non-scaling-stroke"/><polygon points="319.34,225.29 278.65,201.83 159.19,241.89 199.89,265.35" fill="#b2c57e" stroke="#1c211e" stroke-opacity=".68" stroke-width="1.35" stroke-linejoin="round" vector-effect="non-scaling-stroke"/><polygon points="205.18,286.49 199.89,265.35 159.19,241.89 164.49,263.04" fill="#94a468" stroke="#1c211e" stroke-opacity=".68" stroke-width="1.35" stroke-linejoin="round" vector-effect="non-scaling-stroke"/><polygon points="365.87,211.12 358.58,88.59 333.34,91.48 340.63,214.01" fill="#4d683d" stroke="#1c211e" stroke-opacity=".68" stroke-width="1.35" stroke-linejoin="round" vector-effect="non-scaling-stroke"/><polygon points="324.64,246.44 319.34,225.29 199.89,265.35 205.18,286.49" fill="#acbd7a" stroke="#1c211e" stroke-opacity=".68" stroke-width="1.35" stroke-linejoin="round" vector-effect="non-scaling-stroke"/><polygon points="477.55,251.44 386.22,219.02 345.07,223.73 436.39,256.14" fill="#b8cb83" stroke="#1c211e" stroke-opacity=".68" stroke-width="1.35" stroke-linejoin="round" vector-effect="non-scaling-stroke"/><polygon points="436.39,295.88 436.39,256.14 345.07,223.73 345.07,263.46" fill="#94a468" stroke="#1c211e" stroke-opacity=".68" stroke-width="1.35" stroke-linejoin="round" vector-effect="non-scaling-stroke"/><polygon points="451.61,278.50 451.61,238.76 430.10,241.22 430.10,280.96" fill="#afc17c" stroke="#1c211e" stroke-opacity=".68" stroke-width="1.35" stroke-linejoin="round" vector-effect="non-scaling-stroke"/><polygon points="479.38,294.06 479.38,245.61 429.19,251.34 429.19,299.80" fill="#5e7f4c" stroke="#1c211e" stroke-opacity=".68" stroke-width="1.35" stroke-linejoin="round" vector-effect="non-scaling-stroke"/><polygon points="477.55,291.17 477.55,251.44 436.39,256.14 436.39,295.88" fill="#afc17c" stroke="#1c211e" stroke-opacity=".68" stroke-width="1.35" stroke-linejoin="round" vector-effect="non-scaling-stroke"/><polygon points="520.77,274.52 481.23,260.49 468.68,261.92 508.22,275.96" fill="#4f6b3f" stroke="#1c211e" stroke-opacity=".68" stroke-width="1.35" stroke-linejoin="round" vector-effect="non-scaling-stroke"/><polygon points="508.22,295.03 508.22,275.96 468.68,261.92 468.68,280.99" fill="#3e5531" stroke="#1c211e" stroke-opacity=".68" stroke-width="1.35" stroke-linejoin="round" vector-effect="non-scaling-stroke"/><polygon points="481.14,279.05 441.60,265.02 429.05,266.45 468.59,280.49" fill="#4f6b3f" stroke="#1c211e" stroke-opacity=".68" stroke-width="1.35" stroke-linejoin="round" vector-effect="non-scaling-stroke"/><polygon points="468.59,299.56 468.59,280.49 429.05,266.45 429.05,285.53" fill="#3e5531" stroke="#1c211e" stroke-opacity=".68" stroke-width="1.35" stroke-linejoin="round" vector-effect="non-scaling-stroke"/><polygon points="520.77,293.59 520.77,274.52 508.22,275.96 508.22,295.03" fill="#4b653c" stroke="#1c211e" stroke-opacity=".68" stroke-width="1.35" stroke-linejoin="round" vector-effect="non-scaling-stroke"/><polygon points="551.00,277.27 465.05,246.77 422.89,251.59 508.84,282.09" fill="#b8cb83" stroke="#1c211e" stroke-opacity=".68" stroke-width="1.35" stroke-linejoin="round" vector-effect="non-scaling-stroke"/><polygon points="508.84,321.83 508.84,282.09 422.89,251.59 422.89,291.32" fill="#94a468" stroke="#1c211e" stroke-opacity=".68" stroke-width="1.35" stroke-linejoin="round" vector-effect="non-scaling-stroke"/><polygon points="481.14,298.13 481.14,279.05 468.59,280.49 468.59,299.56" fill="#4b653c" stroke="#1c211e" stroke-opacity=".68" stroke-width="1.35" stroke-linejoin="round" vector-effect="non-scaling-stroke"/><polygon points="551.00,317.00 551.00,277.27 508.84,282.09 508.84,321.83" fill="#afc17c" stroke="#1c211e" stroke-opacity=".68" stroke-width="1.35" stroke-linejoin="round" vector-effect="non-scaling-stroke"/><polygon points="560.94,280.79 553.82,278.26 534.89,280.42 542.01,282.95" fill="#6e7259" stroke="#ffe59a" stroke-opacity=".74" stroke-width="1.35" stroke-linejoin="round" vector-effect="non-scaling-stroke" filter="url(#portrait-glow)"/><polygon points="542.01,304.27 542.01,282.95 534.89,280.42 534.89,301.74" fill="#6e7259" stroke="#ffe59a" stroke-opacity=".74" stroke-width="1.35" stroke-linejoin="round" vector-effect="non-scaling-stroke" filter="url(#portrait-glow)"/><polygon points="560.94,302.11 560.94,280.79 542.01,282.95 542.01,304.27" fill="#6e7259" stroke="#ffe59a" stroke-opacity=".74" stroke-width="1.35" stroke-linejoin="round" vector-effect="non-scaling-stroke" filter="url(#portrait-glow)"/><polygon points="545.73,303.90 538.61,301.38 524.28,303.01 531.40,305.54" fill="#4f6b3f" stroke="#1c211e" stroke-opacity=".68" stroke-width="1.35" stroke-linejoin="round" vector-effect="non-scaling-stroke"/><polygon points="531.40,315.64 531.40,305.54 524.28,303.01 524.28,313.11" fill="#3e5531" stroke="#1c211e" stroke-opacity=".68" stroke-width="1.35" stroke-linejoin="round" vector-effect="non-scaling-stroke"/><polygon points="545.73,314.00 545.73,303.90 531.40,305.54 531.40,315.64" fill="#4b653c" stroke="#1c211e" stroke-opacity=".68" stroke-width="1.35" stroke-linejoin="round" vector-effect="non-scaling-stroke"/><polygon points="592.00,312.50 506.54,282.17 485.03,284.62 570.49,314.96" fill="#4f6b3f" stroke="#1c211e" stroke-opacity=".68" stroke-width="1.35" stroke-linejoin="round" vector-effect="non-scaling-stroke"/><polygon points="532.27,284.06 525.15,281.54 506.22,283.70 513.34,286.23" fill="#6e7259" stroke="#ffe59a" stroke-opacity=".74" stroke-width="1.35" stroke-linejoin="round" vector-effect="non-scaling-stroke" filter="url(#portrait-glow)"/><polygon points="570.49,339.19 570.49,314.96 485.03,284.62 485.03,308.85" fill="#3e5531" stroke="#1c211e" stroke-opacity=".68" stroke-width="1.35" stroke-linejoin="round" vector-effect="non-scaling-stroke"/><polygon points="513.34,307.55 513.34,286.23 506.22,283.70 506.22,305.02" fill="#6e7259" stroke="#ffe59a" stroke-opacity=".74" stroke-width="1.35" stroke-linejoin="round" vector-effect="non-scaling-stroke" filter="url(#portrait-glow)"/><polygon points="532.27,305.38 532.27,284.06 513.34,286.23 513.34,307.55" fill="#6e7259" stroke="#ffe59a" stroke-opacity=".74" stroke-width="1.35" stroke-linejoin="round" vector-effect="non-scaling-stroke" filter="url(#portrait-glow)"/><polygon points="592.00,336.73 592.00,312.50 570.49,314.96 570.49,339.19" fill="#4b653c" stroke="#1c211e" stroke-opacity=".68" stroke-width="1.35" stroke-linejoin="round" vector-effect="non-scaling-stroke"/></g>
</svg>