<?xml version="1.0" encoding="UTF-8"?>
<svg xmlns="http://www.w3.org/2000/svg" width="640" height="420" viewBox="0 0 640 420" role="img" aria-labelledby="portrait-title">
  <title id="portrait-title">Sunfoil Pangolin front three-quarter model portrait</title>
  <defs>
    <filter id="portrait-glow" x="-80%" y="-80%" width="260%" height="260%"><feGaussianBlur stdDeviation="4" result="blur"/><feMerge><feMergeNode in="blur"/><feMergeNode in="SourceGraphic"/></feMerge></filter>
    <filter id="portrait-shadow" x="-40%" y="-80%" width="180%" height="260%"><feGaussianBlur stdDeviation="8"/></filter>
  </defs>
  <ellipse cx="307.77" cy="339.70" rx="315.61" ry="13" fill="#0c120f" opacity=".32" filter="url(#portrait-shadow)"/>

  <g><polygon points="181.67,74.44 129.63,55.97 100.82,59.26 152.86,77.73" fill="#eadab8" stroke="#1c211e" stroke-opacity=".68" stroke-width="1.35" stroke-linejoin="round" vector-effect="non-scaling-stroke"/><polygon points="152.86,110.18 152.86,77.73 100.82,59.26 100.82,91.71" fill="#bdb094" stroke="#1c211e" stroke-opacity=".68" stroke-width="1.35" stroke-linejoin="round" vector-effect="non-scaling-stroke"/><polygon points="181.67,106.89 181.67,74.44 152.86,77.73 152.86,110.18" fill="#dfd0af" stroke="#1c211e" stroke-opacity=".68" stroke-width="1.35" stroke-linejoin="round" vector-effect="non-scaling-stroke"/><polygon points="261.18,96.18 171.46,64.33 134.52,68.55 224.25,100.40" fill="#af813b" stroke="#1c211e" stroke-opacity=".68" stroke-width="1.35" stroke-linejoin="round" vector-effect="non-scaling-stroke"/><polygon points="224.25,142.00 224.25,100.40 134.52,68.55 134.52,110.15" fill="#8d672e" stroke="#1c211e" stroke-opacity=".68" stroke-width="1.35" stroke-linejoin="round" vector-effect="non-scaling-stroke"/><polygon points="372.89,255.55 354.96,248.12 319.10,252.22 337.04,259.65" fill="#87632b" stroke="#1c211e" stroke-opacity=".68" stroke-width="1.35" stroke-linejoin="round" vector-effect="non-scaling-stroke"/><polygon points="370.16,229.11 353.28,219.42 321.17,223.09 338.05,232.78" fill="#88642c" stroke="#1c211e" stroke-opacity=".68" stroke-width="1.35" stroke-linejoin="round" vector-effect="non-scaling-stroke"/><polygon points="336.47,297.17 337.04,259.65 319.10,252.22 318.53,289.74" fill="#6c4e21" stroke="#1c211e" stroke-opacity=".68" stroke-width="1.35" stroke-linejoin="round" vector-effect="non-scaling-stroke"/><polygon points="335.36,280.20 338.05,232.78 321.17,223.09 318.48,270.51" fill="#6c4e21" stroke="#1c211e" stroke-opacity=".68" stroke-width="1.35" stroke-linejoin="round" vector-effect="non-scaling-stroke"/><polygon points="372.32,293.07 372.89,255.55 337.04,259.65 336.47,297.17" fill="#7f5d28" stroke="#1c211e" stroke-opacity=".68" stroke-width="1.35" stroke-linejoin="round" vector-effect="non-scaling-stroke"/><polygon points="377.57,209.98 356.52,197.89 316.02,202.53 337.07,214.61" fill="#88642c" stroke="#1c211e" stroke-opacity=".68" stroke-width="1.35" stroke-linejoin="round" vector-effect="non-scaling-stroke"/><polygon points="367.47,276.53 370.16,229.11 338.05,232.78 335.36,280.20" fill="#7d5b27" stroke="#1c211e" stroke-opacity=".68" stroke-width="1.35" stroke-linejoin="round" vector-effect="non-scaling-stroke"/><polygon points="387.04,74.82 345.65,46.88 290.24,53.21 331.63,81.16" fill="#e8c667" stroke="#1c211e" stroke-opacity=".68" stroke-width="1.35" stroke-linejoin="round" vector-effect="non-scaling-stroke"/><polygon points="401.85,281.98 370.71,269.08 313.11,275.66 344.25,288.57" fill="#e5c366" stroke="#1c211e" stroke-opacity=".68" stroke-width="1.35" stroke-linejoin="round" vector-effect="non-scaling-stroke"/><polygon points="334.54,259.04 337.07,214.61 316.02,202.53 313.50,246.96" fill="#6c4e21" stroke="#1c211e" stroke-opacity=".68" stroke-width="1.35" stroke-linejoin="round" vector-effect="non-scaling-stroke"/><polygon points="396.73,296.32 372.89,288.00 363.03,289.37 386.87,297.70" fill="#ebdbb9" stroke="#1c211e" stroke-opacity=".68" stroke-width="1.35" stroke-linejoin="round" vector-effect="non-scaling-stroke"/><polygon points="379.62,188.38 358.49,180.88 318.00,185.51 339.13,193.01" fill="#86622b" stroke="#1c211e" stroke-opacity=".68" stroke-width="1.35" stroke-linejoin="round" vector-effect="non-scaling-stroke"/><polygon points="386.65,311.91 386.87,297.70 363.03,289.37 362.81,303.59" fill="#bdb094" stroke="#1c211e" stroke-opacity=".68" stroke-width="1.35" stroke-linejoin="round" vector-effect="non-scaling-stroke"/><polygon points="375.04,254.41 377.57,209.98 337.07,214.61 334.54,259.04" fill="#7d5b27" stroke="#1c211e" stroke-opacity=".68" stroke-width="1.35" stroke-linejoin="round" vector-effect="non-scaling-stroke"/><polygon points="383.07,168.48 359.03,159.94 314.54,165.03 338.59,173.56" fill="#86622b" stroke="#1c211e" stroke-opacity=".68" stroke-width="1.35" stroke-linejoin="round" vector-effect="non-scaling-stroke"/><polygon points="339.13,237.94 339.13,193.01 318.00,185.51 318.00,230.44" fill="#6c4e21" stroke="#1c211e" stroke-opacity=".68" stroke-width="1.35" stroke-linejoin="round" vector-effect="non-scaling-stroke"/><polygon points="329.76,103.59 331.63,81.16 290.24,53.21 288.36,75.65" fill="#b89d50" stroke="#1c211e" stroke-opacity=".68" stroke-width="1.35" stroke-linejoin="round" vector-effect="non-scaling-stroke"/><polygon points="381.14,298.24 360.19,289.56 349.82,290.74 370.77,299.43" fill="#ebdbb9" stroke="#1c211e" stroke-opacity=".68" stroke-width="1.35" stroke-linejoin="round" vector-effect="non-scaling-stroke"/><polygon points="370.56,313.65 370.77,299.43 349.82,290.74 349.60,304.96" fill="#bdb094" stroke="#1c211e" stroke-opacity=".68" stroke-width="1.35" stroke-linejoin="round" vector-effect="non-scaling-stroke"/><polygon points="343.82,317.00 344.25,288.57 313.11,275.66 312.68,304.10" fill="#b89d50" stroke="#1c211e" stroke-opacity=".68" stroke-width="1.35" stroke-linejoin="round" vector-effect="non-scaling-stroke"/><polygon points="338.59,226.24 338.59,173.56 314.54,165.03 314.54,217.71" fill="#6c4e21" stroke="#1c211e" stroke-opacity=".68" stroke-width="1.35" stroke-linejoin="round" vector-effect="non-scaling-stroke"/><polygon points="379.62,233.31 379.62,188.38 339.13,193.01 339.13,237.94" fill="#805d29" stroke="#1c211e" stroke-opacity=".68" stroke-width="1.35" stroke-linejoin="round" vector-effect="non-scaling-stroke"/><polygon points="396.51,310.54 396.73,296.32 386.87,297.70 386.65,311.91" fill="#dfd0af" stroke="#1c211e" stroke-opacity=".68" stroke-width="1.35" stroke-linejoin="round" vector-effect="non-scaling-stroke"/><polygon points="365.45,300.14 347.51,291.15 336.71,292.14 354.65,301.13" fill="#ebdbb9" stroke="#1c211e" stroke-opacity=".68" stroke-width="1.35" stroke-linejoin="round" vector-effect="non-scaling-stroke"/><polygon points="354.43,315.35 354.65,301.13 336.71,292.14 336.49,306.35" fill="#bdb094" stroke="#1c211e" stroke-opacity=".68" stroke-width="1.35" stroke-linejoin="round" vector-effect="non-scaling-stroke"/><polygon points="383.07,221.16 383.07,168.48 338.59,173.56 338.59,226.24" fill="#805d29" stroke="#1c211e" stroke-opacity=".68" stroke-width="1.35" stroke-linejoin="round" vector-effect="non-scaling-stroke"/><polygon points="401.41,310.42 401.85,281.98 344.25,288.57 343.82,317.00" fill="#d7b85f" stroke="#1c211e" stroke-opacity=".68" stroke-width="1.35" stroke-linejoin="round" vector-effect="non-scaling-stroke"/><polygon points="261.18,137.78 261.18,96.18 224.25,100.40 224.25,142.00" fill="#a77a38" stroke="#1c211e" stroke-opacity=".68" stroke-width="1.35" stroke-linejoin="round" vector-effect="non-scaling-stroke"/><polygon points="343.18,70.74 301.78,42.79 246.38,49.13 287.77,77.07" fill="#e8c667" stroke="#1c211e" stroke-opacity=".68" stroke-width="1.35" stroke-linejoin="round" vector-effect="non-scaling-stroke"/><polygon points="380.92,312.46 381.14,298.24 370.77,299.43 370.56,313.65" fill="#deceae" stroke="#1c211e" stroke-opacity=".68" stroke-width="1.35" stroke-linejoin="round" vector-effect="non-scaling-stroke"/><polygon points="385.16,97.26 387.04,74.82 331.63,81.16 329.76,103.59" fill="#d2b35d" stroke="#1c211e" stroke-opacity=".68" stroke-width="1.35" stroke-linejoin="round" vector-effect="non-scaling-stroke"/><polygon points="365.23,314.36 365.45,300.14 354.65,301.13 354.43,315.35" fill="#dccdad" stroke="#1c211e" stroke-opacity=".68" stroke-width="1.35" stroke-linejoin="round" vector-effect="non-scaling-stroke"/><polygon points="285.89,99.51 287.77,77.07 246.38,49.13 244.50,71.56" fill="#b89d50" stroke="#1c211e" stroke-opacity=".68" stroke-width="1.35" stroke-linejoin="round" vector-effect="non-scaling-stroke"/><polygon points="299.31,66.65 257.92,38.71 202.52,45.04 243.91,72.99" fill="#e8c667" stroke="#1c211e" stroke-opacity=".68" stroke-width="1.35" stroke-linejoin="round" vector-effect="non-scaling-stroke"/><polygon points="341.30,93.17 343.18,70.74 287.77,77.07 285.89,99.51" fill="#d2b35d" stroke="#1c211e" stroke-opacity=".68" stroke-width="1.35" stroke-linejoin="round" vector-effect="non-scaling-stroke"/><polygon points="421.11,86.91 379.71,58.97 324.31,65.30 365.70,93.25" fill="#eedebb" stroke="#1c211e" stroke-opacity=".68" stroke-width="1.35" stroke-linejoin="round" vector-effect="non-scaling-stroke"/><polygon points="242.03,95.42 243.91,72.99 202.52,45.04 200.64,67.47" fill="#b89d50" stroke="#1c211e" stroke-opacity=".68" stroke-width="1.35" stroke-linejoin="round" vector-effect="non-scaling-stroke"/><polygon points="363.82,115.68 365.70,93.25 324.31,65.30 322.43,87.74" fill="#bdb094" stroke="#1c211e" stroke-opacity=".68" stroke-width="1.35" stroke-linejoin="round" vector-effect="non-scaling-stroke"/><polygon points="255.45,80.77 214.06,52.82 158.65,59.16 200.05,87.10" fill="#e8c667" stroke="#1c211e" stroke-opacity=".68" stroke-width="1.35" stroke-linejoin="round" vector-effect="non-scaling-stroke"/><polygon points="206.68,274.56 188.74,267.12 152.89,271.22 170.82,278.65" fill="#87632b" stroke="#1c211e" stroke-opacity=".68" stroke-width="1.35" stroke-linejoin="round" vector-effect="non-scaling-stroke"/><polygon points="203.94,248.11 187.07,238.42 154.95,242.09 171.83,251.78" fill="#88642c" stroke="#1c211e" stroke-opacity=".68" stroke-width="1.35" stroke-linejoin="round" vector-effect="non-scaling-stroke"/><polygon points="297.44,89.09 299.31,66.65 243.91,72.99 242.03,95.42" fill="#d2b35d" stroke="#1c211e" stroke-opacity=".68" stroke-width="1.35" stroke-linejoin="round" vector-effect="non-scaling-stroke"/><polygon points="170.25,316.18 170.82,278.65 152.89,271.22 152.32,308.74" fill="#6c4e21" stroke="#1c211e" stroke-opacity=".68" stroke-width="1.35" stroke-linejoin="round" vector-effect="non-scaling-stroke"/><polygon points="169.14,299.21 171.83,251.78 154.95,242.09 152.26,289.52" fill="#6c4e21" stroke="#1c211e" stroke-opacity=".68" stroke-width="1.35" stroke-linejoin="round" vector-effect="non-scaling-stroke"/><polygon points="377.24,82.83 335.85,54.88 280.45,61.22 321.84,89.16" fill="#eedebb" stroke="#1c211e" stroke-opacity=".68" stroke-width="1.35" stroke-linejoin="round" vector-effect="non-scaling-stroke"/><polygon points="198.17,109.54 200.05,87.10 158.65,59.16 156.77,81.59" fill="#b89d50" stroke="#1c211e" stroke-opacity=".68" stroke-width="1.35" stroke-linejoin="round" vector-effect="non-scaling-stroke"/><polygon points="206.10,312.08 206.68,274.56 170.82,278.65 170.25,316.18" fill="#7f5d28" stroke="#1c211e" stroke-opacity=".68" stroke-width="1.35" stroke-linejoin="round" vector-effect="non-scaling-stroke"/><polygon points="211.35,228.98 190.30,216.90 149.80,221.53 170.85,233.61" fill="#88642c" stroke="#1c211e" stroke-opacity=".68" stroke-width="1.35" stroke-linejoin="round" vector-effect="non-scaling-stroke"/><polygon points="419.23,109.35 421.11,86.91 365.70,93.25 363.82,115.68" fill="#d8c9a9" stroke="#1c211e" stroke-opacity=".68" stroke-width="1.35" stroke-linejoin="round" vector-effect="non-scaling-stroke"/><polygon points="201.25,295.53 203.94,248.11 171.83,251.78 169.14,299.21" fill="#7d5b27" stroke="#1c211e" stroke-opacity=".68" stroke-width="1.35" stroke-linejoin="round" vector-effect="non-scaling-stroke"/><polygon points="235.63,300.99 204.49,288.08 146.90,294.67 178.04,307.57" fill="#e5c366" stroke="#1c211e" stroke-opacity=".68" stroke-width="1.35" stroke-linejoin="round" vector-effect="non-scaling-stroke"/><polygon points="168.33,278.05 170.85,233.61 149.80,221.53 147.28,265.96" fill="#6c4e21" stroke="#1c211e" stroke-opacity=".68" stroke-width="1.35" stroke-linejoin="round" vector-effect="non-scaling-stroke"/><polygon points="230.51,315.32 206.67,307.00 196.81,308.38 220.65,316.70" fill="#ebdbb9" stroke="#1c211e" stroke-opacity=".68" stroke-width="1.35" stroke-linejoin="round" vector-effect="non-scaling-stroke"/><polygon points="213.40,207.39 192.27,199.89 151.78,204.52 172.91,212.02" fill="#86622b" stroke="#1c211e" stroke-opacity=".68" stroke-width="1.35" stroke-linejoin="round" vector-effect="non-scaling-stroke"/><polygon points="319.96,111.60 321.84,89.16 280.45,61.22 278.57,83.65" fill="#bdb094" stroke="#1c211e" stroke-opacity=".68" stroke-width="1.35" stroke-linejoin="round" vector-effect="non-scaling-stroke"/><polygon points="211.59,94.88 170.20,66.94 114.79,73.27 156.18,101.22" fill="#e8c667" stroke="#1c211e" stroke-opacity=".68" stroke-width="1.35" stroke-linejoin="round" vector-effect="non-scaling-stroke"/><polygon points="220.43,330.92 220.65,316.70 196.81,308.38 196.59,322.60" fill="#bdb094" stroke="#1c211e" stroke-opacity=".68" stroke-width="1.35" stroke-linejoin="round" vector-effect="non-scaling-stroke"/><polygon points="208.83,273.41 211.35,228.98 170.85,233.61 168.33,278.05" fill="#7d5b27" stroke="#1c211e" stroke-opacity=".68" stroke-width="1.35" stroke-linejoin="round" vector-effect="non-scaling-stroke"/><polygon points="216.85,187.48 192.81,178.95 148.32,184.03 172.37,192.57" fill="#86622b" stroke="#1c211e" stroke-opacity=".68" stroke-width="1.35" stroke-linejoin="round" vector-effect="non-scaling-stroke"/><polygon points="172.91,256.95 172.91,212.02 151.78,204.52 151.78,249.45" fill="#6c4e21" stroke="#1c211e" stroke-opacity=".68" stroke-width="1.35" stroke-linejoin="round" vector-effect="non-scaling-stroke"/><polygon points="214.92,317.25 193.97,308.56 183.60,309.75 204.56,318.43" fill="#ebdbb9" stroke="#1c211e" stroke-opacity=".68" stroke-width="1.35" stroke-linejoin="round" vector-effect="non-scaling-stroke"/><polygon points="253.57,103.20 255.45,80.77 200.05,87.10 198.17,109.54" fill="#d2b35d" stroke="#1c211e" stroke-opacity=".68" stroke-width="1.35" stroke-linejoin="round" vector-effect="non-scaling-stroke"/><polygon points="204.34,332.65 204.56,318.43 183.60,309.75 183.38,323.97" fill="#bdb094" stroke="#1c211e" stroke-opacity=".68" stroke-width="1.35" stroke-linejoin="round" vector-effect="non-scaling-stroke"/><polygon points="177.60,336.01 178.04,307.57 146.90,294.67 146.46,323.10" fill="#b89d50" stroke="#1c211e" stroke-opacity=".68" stroke-width="1.35" stroke-linejoin="round" vector-effect="non-scaling-stroke"/><polygon points="172.37,245.25 172.37,192.57 148.32,184.03 148.32,236.71" fill="#6c4e21" stroke="#1c211e" stroke-opacity=".68" stroke-width="1.35" stroke-linejoin="round" vector-effect="non-scaling-stroke"/><polygon points="154.30,123.65 156.18,101.22 114.79,73.27 112.91,95.71" fill="#b89d50" stroke="#1c211e" stroke-opacity=".68" stroke-width="1.35" stroke-linejoin="round" vector-effect="non-scaling-stroke"/><polygon points="213.40,252.32 213.40,207.39 172.91,212.02 172.91,256.95" fill="#805d29" stroke="#1c211e" stroke-opacity=".68" stroke-width="1.35" stroke-linejoin="round" vector-effect="non-scaling-stroke"/><polygon points="333.38,78.74 291.99,50.80 236.58,57.13 277.98,85.08" fill="#eedebb" stroke="#1c211e" stroke-opacity=".68" stroke-width="1.35" stroke-linejoin="round" vector-effect="non-scaling-stroke"/><polygon points="230.30,329.54 230.51,315.32 220.65,316.70 220.43,330.92" fill="#dfd0af" stroke="#1c211e" stroke-opacity=".68" stroke-width="1.35" stroke-linejoin="round" vector-effect="non-scaling-stroke"/><polygon points="199.23,319.15 181.30,310.15 170.49,311.14 188.43,320.14" fill="#ebdbb9" stroke="#1c211e" stroke-opacity=".68" stroke-width="1.35" stroke-linejoin="round" vector-effect="non-scaling-stroke"/><polygon points="450.48,60.66 361.05,28.92 118.65,56.63 208.08,88.37" fill="#af813b" stroke="#1c211e" stroke-opacity=".68" stroke-width="1.35" stroke-linejoin="round" vector-effect="non-scaling-stroke"/><polygon points="188.21,334.35 188.43,320.14 170.49,311.14 170.28,325.36" fill="#bdb094" stroke="#1c211e" stroke-opacity=".68" stroke-width="1.35" stroke-linejoin="round" vector-effect="non-scaling-stroke"/><polygon points="375.37,105.26 377.24,82.83 321.84,89.16 319.96,111.60" fill="#d8c9a9" stroke="#1c211e" stroke-opacity=".68" stroke-width="1.35" stroke-linejoin="round" vector-effect="non-scaling-stroke"/><polygon points="216.85,240.16 216.85,187.48 172.37,192.57 172.37,245.25" fill="#805d29" stroke="#1c211e" stroke-opacity=".68" stroke-width="1.35" stroke-linejoin="round" vector-effect="non-scaling-stroke"/><polygon points="235.20,329.42 235.63,300.99 178.04,307.57 177.60,336.01" fill="#d7b85f" stroke="#1c211e" stroke-opacity=".68" stroke-width="1.35" stroke-linejoin="round" vector-effect="non-scaling-stroke"/><polygon points="455.17,99.01 413.78,71.06 358.38,77.39 399.77,105.34" fill="#e8c667" stroke="#1c211e" stroke-opacity=".68" stroke-width="1.35" stroke-linejoin="round" vector-effect="non-scaling-stroke"/><polygon points="214.71,331.47 214.92,317.25 204.56,318.43 204.34,332.65" fill="#deceae" stroke="#1c211e" stroke-opacity=".68" stroke-width="1.35" stroke-linejoin="round" vector-effect="non-scaling-stroke"/><polygon points="276.10,107.51 277.98,85.08 236.58,57.13 234.70,79.57" fill="#bdb094" stroke="#1c211e" stroke-opacity=".68" stroke-width="1.35" stroke-linejoin="round" vector-effect="non-scaling-stroke"/><polygon points="209.71,117.32 211.59,94.88 156.18,101.22 154.30,123.65" fill="#d2b35d" stroke="#1c211e" stroke-opacity=".68" stroke-width="1.35" stroke-linejoin="round" vector-effect="non-scaling-stroke"/><polygon points="397.89,127.78 399.77,105.34 358.38,77.39 356.50,99.83" fill="#b89d50" stroke="#1c211e" stroke-opacity=".68" stroke-width="1.35" stroke-linejoin="round" vector-effect="non-scaling-stroke"/><polygon points="199.02,333.37 199.23,319.15 188.43,320.14 188.21,334.35" fill="#dccdad" stroke="#1c211e" stroke-opacity=".68" stroke-width="1.35" stroke-linejoin="round" vector-effect="non-scaling-stroke"/><polygon points="289.52,92.86 248.13,64.91 192.72,71.25 234.11,99.19" fill="#eedebb" stroke="#1c211e" stroke-opacity=".68" stroke-width="1.35" stroke-linejoin="round" vector-effect="non-scaling-stroke"/><polygon points="331.50,101.18 333.38,78.74 277.98,85.08 276.10,107.51" fill="#d8c9a9" stroke="#1c211e" stroke-opacity=".68" stroke-width="1.35" stroke-linejoin="round" vector-effect="non-scaling-stroke"/><polygon points="411.31,94.92 369.92,66.97 314.51,73.31 355.91,101.26" fill="#e8c667" stroke="#1c211e" stroke-opacity=".68" stroke-width="1.35" stroke-linejoin="round" vector-effect="non-scaling-stroke"/><polygon points="232.23,121.63 234.11,99.19 192.72,71.25 190.84,93.68" fill="#bdb094" stroke="#1c211e" stroke-opacity=".68" stroke-width="1.35" stroke-linejoin="round" vector-effect="non-scaling-stroke"/><polygon points="453.30,121.44 455.17,99.01 399.77,105.34 397.89,127.78" fill="#d2b35d" stroke="#1c211e" stroke-opacity=".68" stroke-width="1.35" stroke-linejoin="round" vector-effect="non-scaling-stroke"/><polygon points="354.03,123.69 355.91,101.26 314.51,73.31 312.63,95.74" fill="#b89d50" stroke="#1c211e" stroke-opacity=".68" stroke-width="1.35" stroke-linejoin="round" vector-effect="non-scaling-stroke"/><polygon points="245.66,106.98 204.26,79.03 148.86,85.36 190.25,113.31" fill="#eedebb" stroke="#1c211e" stroke-opacity=".68" stroke-width="1.35" stroke-linejoin="round" vector-effect="non-scaling-stroke"/><polygon points="208.08,251.03 208.08,88.37 118.65,56.63 118.65,219.29" fill="#8d672e" stroke="#1c211e" stroke-opacity=".68" stroke-width="1.35" stroke-linejoin="round" vector-effect="non-scaling-stroke"/><polygon points="287.64,115.29 289.52,92.86 234.11,99.19 232.23,121.63" fill="#d8c9a9" stroke="#1c211e" stroke-opacity=".68" stroke-width="1.35" stroke-linejoin="round" vector-effect="non-scaling-stroke"/><polygon points="188.37,135.75 190.25,113.31 148.86,85.36 146.98,107.80" fill="#bdb094" stroke="#1c211e" stroke-opacity=".68" stroke-width="1.35" stroke-linejoin="round" vector-effect="non-scaling-stroke"/><polygon points="367.45,90.84 326.06,62.89 270.65,69.22 312.04,97.17" fill="#e8c667" stroke="#1c211e" stroke-opacity=".68" stroke-width="1.35" stroke-linejoin="round" vector-effect="non-scaling-stroke"/><polygon points="450.48,223.32 450.48,60.66 208.08,88.37 208.08,251.03" fill="#a77a38" stroke="#1c211e" stroke-opacity=".68" stroke-width="1.35" stroke-linejoin="round" vector-effect="non-scaling-stroke"/><polygon points="493.44,85.13 366.18,39.96 148.02,64.90 275.28,110.07" fill="#af813b" stroke="#1c211e" stroke-opacity=".68" stroke-width="1.35" stroke-linejoin="round" vector-effect="non-scaling-stroke"/><polygon points="409.43,117.36 411.31,94.92 355.91,101.26 354.03,123.69" fill="#d2b35d" stroke="#1c211e" stroke-opacity=".68" stroke-width="1.35" stroke-linejoin="round" vector-effect="non-scaling-stroke"/><polygon points="489.24,111.10 447.85,83.15 392.44,89.49 433.84,117.43" fill="#eedebb" stroke="#1c211e" stroke-opacity=".68" stroke-width="1.35" stroke-linejoin="round" vector-effect="non-scaling-stroke"/><polygon points="460.21,197.11 360.47,161.71 210.18,178.89 309.92,214.30" fill="#eadab8" stroke="#1c211e" stroke-opacity=".68" stroke-width="1.35" stroke-linejoin="round" vector-effect="non-scaling-stroke"/><polygon points="486.21,294.92 468.27,289.26 432.42,293.36 450.36,299.02" fill="#86622b" stroke="#1c211e" stroke-opacity=".68" stroke-width="1.35" stroke-linejoin="round" vector-effect="non-scaling-stroke"/><polygon points="310.16,119.61 312.04,97.17 270.65,69.22 268.77,91.66" fill="#b89d50" stroke="#1c211e" stroke-opacity=".68" stroke-width="1.35" stroke-linejoin="round" vector-effect="non-scaling-stroke"/><polygon points="469.08,65.51 352.15,24.00 177.62,43.96 294.56,85.46" fill="#e4c265" stroke="#1c211e" stroke-opacity=".68" stroke-width="1.35" stroke-linejoin="round" vector-effect="non-scaling-stroke"/><polygon points="243.78,129.41 245.66,106.98 190.25,113.31 188.37,135.75" fill="#d8c9a9" stroke="#1c211e" stroke-opacity=".68" stroke-width="1.35" stroke-linejoin="round" vector-effect="non-scaling-stroke"/><polygon points="450.74,336.89 450.36,299.02 432.42,293.36 432.80,331.23" fill="#6c4e21" stroke="#1c211e" stroke-opacity=".68" stroke-width="1.35" stroke-linejoin="round" vector-effect="non-scaling-stroke"/><polygon points="431.96,139.87 433.84,117.43 392.44,89.49 390.56,111.92" fill="#bdb094" stroke="#1c211e" stroke-opacity=".68" stroke-width="1.35" stroke-linejoin="round" vector-effect="non-scaling-stroke"/><polygon points="485.67,267.07 468.73,263.41 436.62,267.08 453.56,270.74" fill="#85612b" stroke="#1c211e" stroke-opacity=".68" stroke-width="1.35" stroke-linejoin="round" vector-effect="non-scaling-stroke"/><polygon points="491.24,246.47 470.11,241.91 429.61,246.54 450.74,251.10" fill="#85612b" stroke="#1c211e" stroke-opacity=".68" stroke-width="1.35" stroke-linejoin="round" vector-effect="non-scaling-stroke"/><polygon points="323.59,104.95 282.19,77.00 226.79,83.34 268.18,111.29" fill="#e8c667" stroke="#1c211e" stroke-opacity=".68" stroke-width="1.35" stroke-linejoin="round" vector-effect="non-scaling-stroke"/><polygon points="486.59,332.79 486.21,294.92 450.36,299.02 450.74,336.89" fill="#805e29" stroke="#1c211e" stroke-opacity=".68" stroke-width="1.35" stroke-linejoin="round" vector-effect="non-scaling-stroke"/><polygon points="489.68,227.45 468.55,219.95 428.06,224.58 449.19,232.08" fill="#86622b" stroke="#1c211e" stroke-opacity=".68" stroke-width="1.35" stroke-linejoin="round" vector-effect="non-scaling-stroke"/><polygon points="455.27,319.90 453.56,270.74 436.62,267.08 438.33,316.25" fill="#6c4e21" stroke="#1c211e" stroke-opacity=".68" stroke-width="1.35" stroke-linejoin="round" vector-effect="non-scaling-stroke"/><polygon points="515.68,319.71 484.53,309.89 426.94,316.48 458.08,326.30" fill="#e3c265" stroke="#1c211e" stroke-opacity=".68" stroke-width="1.35" stroke-linejoin="round" vector-effect="non-scaling-stroke"/><polygon points="493.13,207.54 469.09,199.01 424.61,204.10 448.65,212.63" fill="#86622b" stroke="#1c211e" stroke-opacity=".68" stroke-width="1.35" stroke-linejoin="round" vector-effect="non-scaling-stroke"/><polygon points="365.57,113.27 367.45,90.84 312.04,97.17 310.16,119.61" fill="#d2b35d" stroke="#1c211e" stroke-opacity=".68" stroke-width="1.35" stroke-linejoin="round" vector-effect="non-scaling-stroke"/><polygon points="452.34,297.16 450.74,251.10 429.61,246.54 431.22,292.60" fill="#6c4e21" stroke="#1c211e" stroke-opacity=".68" stroke-width="1.35" stroke-linejoin="round" vector-effect="non-scaling-stroke"/><polygon points="449.19,277.01 449.19,232.08 428.06,224.58 428.06,269.51" fill="#6c4e21" stroke="#1c211e" stroke-opacity=".68" stroke-width="1.35" stroke-linejoin="round" vector-effect="non-scaling-stroke"/><polygon points="487.38,316.23 485.67,267.07 453.56,270.74 455.27,319.90" fill="#815e29" stroke="#1c211e" stroke-opacity=".68" stroke-width="1.35" stroke-linejoin="round" vector-effect="non-scaling-stroke"/><polygon points="510.87,333.88 487.03,327.63 477.16,328.96 501.01,335.21" fill="#eadab8" stroke="#1c211e" stroke-opacity=".68" stroke-width="1.35" stroke-linejoin="round" vector-effect="non-scaling-stroke"/><polygon points="445.38,107.01 403.99,79.07 348.58,85.40 389.97,113.35" fill="#eedebb" stroke="#1c211e" stroke-opacity=".68" stroke-width="1.35" stroke-linejoin="round" vector-effect="non-scaling-stroke"/><polygon points="501.15,349.56 501.01,335.21 477.16,328.96 477.31,343.31" fill="#bdb094" stroke="#1c211e" stroke-opacity=".68" stroke-width="1.35" stroke-linejoin="round" vector-effect="non-scaling-stroke"/><polygon points="266.30,133.72 268.18,111.29 226.79,83.34 224.91,105.77" fill="#b89d50" stroke="#1c211e" stroke-opacity=".68" stroke-width="1.35" stroke-linejoin="round" vector-effect="non-scaling-stroke"/><polygon points="448.65,265.31 448.65,212.63 424.61,204.10 424.61,256.77" fill="#6c4e21" stroke="#1c211e" stroke-opacity=".68" stroke-width="1.35" stroke-linejoin="round" vector-effect="non-scaling-stroke"/><polygon points="487.36,133.53 489.24,111.10 433.84,117.43 431.96,139.87" fill="#d8c9a9" stroke="#1c211e" stroke-opacity=".68" stroke-width="1.35" stroke-linejoin="round" vector-effect="non-scaling-stroke"/><polygon points="489.68,272.38 489.68,227.45 449.19,232.08 449.19,277.01" fill="#805d29" stroke="#1c211e" stroke-opacity=".68" stroke-width="1.35" stroke-linejoin="round" vector-effect="non-scaling-stroke"/><polygon points="492.84,292.53 491.24,246.47 450.74,251.10 452.34,297.16" fill="#815e29" stroke="#1c211e" stroke-opacity=".68" stroke-width="1.35" stroke-linejoin="round" vector-effect="non-scaling-stroke"/><polygon points="495.28,335.78 474.32,329.17 463.96,330.36 484.92,336.97" fill="#eadab8" stroke="#1c211e" stroke-opacity=".68" stroke-width="1.35" stroke-linejoin="round" vector-effect="non-scaling-stroke"/><polygon points="458.37,355.00 458.08,326.30 426.94,316.48 427.23,345.18" fill="#b89d50" stroke="#1c211e" stroke-opacity=".68" stroke-width="1.35" stroke-linejoin="round" vector-effect="non-scaling-stroke"/><polygon points="485.06,351.31 484.92,336.97 463.96,330.36 464.10,344.71" fill="#bdb094" stroke="#1c211e" stroke-opacity=".68" stroke-width="1.35" stroke-linejoin="round" vector-effect="non-scaling-stroke"/><polygon points="309.92,281.48 309.92,214.30 210.18,178.89 210.18,246.08" fill="#bdb094" stroke="#1c211e" stroke-opacity=".68" stroke-width="1.35" stroke-linejoin="round" vector-effect="non-scaling-stroke"/><polygon points="493.13,260.22 493.13,207.54 448.65,212.63 448.65,265.31" fill="#805d29" stroke="#1c211e" stroke-opacity=".68" stroke-width="1.35" stroke-linejoin="round" vector-effect="non-scaling-stroke"/><polygon points="388.09,135.78 389.97,113.35 348.58,85.40 346.70,107.84" fill="#bdb094" stroke="#1c211e" stroke-opacity=".68" stroke-width="1.35" stroke-linejoin="round" vector-effect="non-scaling-stroke"/><polygon points="279.72,119.07 238.33,91.12 182.92,97.45 224.32,125.40" fill="#e8c667" stroke="#1c211e" stroke-opacity=".68" stroke-width="1.35" stroke-linejoin="round" vector-effect="non-scaling-stroke"/><polygon points="511.02,348.23 510.87,333.88 501.01,335.21 501.15,349.56" fill="#e2d2b1" stroke="#1c211e" stroke-opacity=".68" stroke-width="1.35" stroke-linejoin="round" vector-effect="non-scaling-stroke"/><polygon points="479.59,337.66 461.65,330.74 450.85,331.77 468.79,338.69" fill="#eadab8" stroke="#1c211e" stroke-opacity=".68" stroke-width="1.35" stroke-linejoin="round" vector-effect="non-scaling-stroke"/><polygon points="468.93,353.04 468.79,338.69 450.85,331.77 450.99,346.12" fill="#bdb094" stroke="#1c211e" stroke-opacity=".68" stroke-width="1.35" stroke-linejoin="round" vector-effect="non-scaling-stroke"/><polygon points="275.28,269.20 275.28,110.07 148.02,64.90 148.02,224.03" fill="#8d672e" stroke="#1c211e" stroke-opacity=".68" stroke-width="1.35" stroke-linejoin="round" vector-effect="non-scaling-stroke"/><polygon points="515.97,348.41 515.68,319.71 458.08,326.30 458.37,355.00" fill="#daba60" stroke="#1c211e" stroke-opacity=".68" stroke-width="1.35" stroke-linejoin="round" vector-effect="non-scaling-stroke"/><polygon points="321.71,127.39 323.59,104.95 268.18,111.29 266.30,133.72" fill="#d2b35d" stroke="#1c211e" stroke-opacity=".68" stroke-width="1.35" stroke-linejoin="round" vector-effect="non-scaling-stroke"/><polygon points="294.56,145.57 294.56,85.46 177.62,43.96 177.62,104.07" fill="#b89d50" stroke="#1c211e" stroke-opacity=".68" stroke-width="1.35" stroke-linejoin="round" vector-effect="non-scaling-stroke"/><polygon points="495.43,350.13 495.28,335.78 484.92,336.97 485.06,351.31" fill="#e0d0b0" stroke="#1c211e" stroke-opacity=".68" stroke-width="1.35" stroke-linejoin="round" vector-effect="non-scaling-stroke"/><polygon points="222.44,147.84 224.32,125.40 182.92,97.45 181.04,119.89" fill="#b89d50" stroke="#1c211e" stroke-opacity=".68" stroke-width="1.35" stroke-linejoin="round" vector-effect="non-scaling-stroke"/><polygon points="401.52,102.93 360.12,74.98 304.72,81.32 346.11,109.26" fill="#eedebb" stroke="#1c211e" stroke-opacity=".68" stroke-width="1.35" stroke-linejoin="round" vector-effect="non-scaling-stroke"/><polygon points="443.50,129.45 445.38,107.01 389.97,113.35 388.09,135.78" fill="#d8c9a9" stroke="#1c211e" stroke-opacity=".68" stroke-width="1.35" stroke-linejoin="round" vector-effect="non-scaling-stroke"/><polygon points="479.74,352.01 479.59,337.66 468.79,338.69 468.93,353.04" fill="#decfae" stroke="#1c211e" stroke-opacity=".68" stroke-width="1.35" stroke-linejoin="round" vector-effect="non-scaling-stroke"/><polygon points="523.31,123.19 481.92,95.24 426.51,101.58 467.90,129.52" fill="#e8c667" stroke="#1c211e" stroke-opacity=".68" stroke-width="1.35" stroke-linejoin="round" vector-effect="non-scaling-stroke"/><polygon points="512.09,90.36 429.55,61.06 201.69,87.11 284.24,116.41" fill="#af813b" stroke="#1c211e" stroke-opacity=".68" stroke-width="1.35" stroke-linejoin="round" vector-effect="non-scaling-stroke"/><polygon points="344.23,131.70 346.11,109.26 304.72,81.32 302.84,103.75" fill="#bdb094" stroke="#1c211e" stroke-opacity=".68" stroke-width="1.35" stroke-linejoin="round" vector-effect="non-scaling-stroke"/><polygon points="277.84,141.50 279.72,119.07 224.32,125.40 222.44,147.84" fill="#d2b35d" stroke="#1c211e" stroke-opacity=".68" stroke-width="1.35" stroke-linejoin="round" vector-effect="non-scaling-stroke"/><polygon points="466.02,151.96 467.90,129.52 426.51,101.58 424.63,124.01" fill="#b89d50" stroke="#1c211e" stroke-opacity=".68" stroke-width="1.35" stroke-linejoin="round" vector-effect="non-scaling-stroke"/><polygon points="357.65,117.04 316.26,89.10 260.85,95.43 302.25,123.38" fill="#eedebb" stroke="#1c211e" stroke-opacity=".68" stroke-width="1.35" stroke-linejoin="round" vector-effect="non-scaling-stroke"/><polygon points="460.21,264.30 460.21,197.11 309.92,214.30 309.92,281.48" fill="#dfd0af" stroke="#1c211e" stroke-opacity=".68" stroke-width="1.35" stroke-linejoin="round" vector-effect="non-scaling-stroke"/><polygon points="399.64,125.36 401.52,102.93 346.11,109.26 344.23,131.70" fill="#d8c9a9" stroke="#1c211e" stroke-opacity=".68" stroke-width="1.35" stroke-linejoin="round" vector-effect="non-scaling-stroke"/><polygon points="479.45,119.10 438.05,91.16 382.65,97.49 424.04,125.44" fill="#e8c667" stroke="#1c211e" stroke-opacity=".68" stroke-width="1.35" stroke-linejoin="round" vector-effect="non-scaling-stroke"/><polygon points="300.37,145.81 302.25,123.38 260.85,95.43 258.97,117.87" fill="#bdb094" stroke="#1c211e" stroke-opacity=".68" stroke-width="1.35" stroke-linejoin="round" vector-effect="non-scaling-stroke"/><polygon points="521.43,145.62 523.31,123.19 467.90,129.52 466.02,151.96" fill="#d2b35d" stroke="#1c211e" stroke-opacity=".68" stroke-width="1.35" stroke-linejoin="round" vector-effect="non-scaling-stroke"/><polygon points="493.44,244.25 493.44,85.13 275.28,110.07 275.28,269.20" fill="#a77a38" stroke="#1c211e" stroke-opacity=".68" stroke-width="1.35" stroke-linejoin="round" vector-effect="non-scaling-stroke"/><polygon points="422.16,147.87 424.04,125.44 382.65,97.49 380.77,119.93" fill="#b89d50" stroke="#1c211e" stroke-opacity=".68" stroke-width="1.35" stroke-linejoin="round" vector-effect="non-scaling-stroke"/><polygon points="319.99,313.92 302.05,308.27 266.20,312.37 284.14,318.02" fill="#86622b" stroke="#1c211e" stroke-opacity=".68" stroke-width="1.35" stroke-linejoin="round" vector-effect="non-scaling-stroke"/><polygon points="313.79,131.16 272.40,103.21 216.99,109.55 258.38,137.49" fill="#eedebb" stroke="#1c211e" stroke-opacity=".68" stroke-width="1.35" stroke-linejoin="round" vector-effect="non-scaling-stroke"/><polygon points="469.08,125.62 469.08,65.51 294.56,85.46 294.56,145.57" fill="#d9b960" stroke="#1c211e" stroke-opacity=".68" stroke-width="1.35" stroke-linejoin="round" vector-effect="non-scaling-stroke"/><polygon points="284.52,355.89 284.14,318.02 266.20,312.37 266.58,350.24" fill="#6c4e21" stroke="#1c211e" stroke-opacity=".68" stroke-width="1.35" stroke-linejoin="round" vector-effect="non-scaling-stroke"/><polygon points="355.77,139.48 357.65,117.04 302.25,123.38 300.37,145.81" fill="#d8c9a9" stroke="#1c211e" stroke-opacity=".68" stroke-width="1.35" stroke-linejoin="round" vector-effect="non-scaling-stroke"/><polygon points="319.45,286.07 302.51,282.42 270.40,286.09 287.34,289.74" fill="#85612b" stroke="#1c211e" stroke-opacity=".68" stroke-width="1.35" stroke-linejoin="round" vector-effect="non-scaling-stroke"/><polygon points="284.24,268.46 284.24,116.41 201.69,87.11 201.69,239.17" fill="#8d672e" stroke="#1c211e" stroke-opacity=".68" stroke-width="1.35" stroke-linejoin="round" vector-effect="non-scaling-stroke"/><polygon points="325.02,265.47 303.90,260.91 263.40,265.54 284.52,270.10" fill="#85612b" stroke="#1c211e" stroke-opacity=".68" stroke-width="1.35" stroke-linejoin="round" vector-effect="non-scaling-stroke"/><polygon points="320.37,351.79 319.99,313.92 284.14,318.02 284.52,355.89" fill="#805e29" stroke="#1c211e" stroke-opacity=".68" stroke-width="1.35" stroke-linejoin="round" vector-effect="non-scaling-stroke"/><polygon points="256.50,159.93 258.38,137.49 216.99,109.55 215.11,131.98" fill="#bdb094" stroke="#1c211e" stroke-opacity=".68" stroke-width="1.35" stroke-linejoin="round" vector-effect="non-scaling-stroke"/><polygon points="323.46,246.45 302.33,238.95 261.84,243.58 282.97,251.08" fill="#86622b" stroke="#1c211e" stroke-opacity=".68" stroke-width="1.35" stroke-linejoin="round" vector-effect="non-scaling-stroke"/><polygon points="289.05,338.91 287.34,289.74 270.40,286.09 272.11,335.25" fill="#6c4e21" stroke="#1c211e" stroke-opacity=".68" stroke-width="1.35" stroke-linejoin="round" vector-effect="non-scaling-stroke"/><polygon points="435.58,115.02 394.19,87.07 338.78,93.41 380.18,121.35" fill="#e8c667" stroke="#1c211e" stroke-opacity=".68" stroke-width="1.35" stroke-linejoin="round" vector-effect="non-scaling-stroke"/><polygon points="455.16,166.39 416.58,152.70 333.84,162.16 372.42,175.86" fill="#af813b" stroke="#1c211e" stroke-opacity=".68" stroke-width="1.35" stroke-linejoin="round" vector-effect="non-scaling-stroke"/><polygon points="349.46,338.72 318.31,328.90 260.72,335.48 291.87,345.30" fill="#e3c265" stroke="#1c211e" stroke-opacity=".68" stroke-width="1.35" stroke-linejoin="round" vector-effect="non-scaling-stroke"/><polygon points="326.92,226.55 302.87,218.01 258.39,223.10 282.43,231.64" fill="#86622b" stroke="#1c211e" stroke-opacity=".68" stroke-width="1.35" stroke-linejoin="round" vector-effect="non-scaling-stroke"/><polygon points="477.57,141.54 479.45,119.10 424.04,125.44 422.16,147.87" fill="#d2b35d" stroke="#1c211e" stroke-opacity=".68" stroke-width="1.35" stroke-linejoin="round" vector-effect="non-scaling-stroke"/><polygon points="512.09,242.41 512.09,90.36 284.24,116.41 284.24,268.46" fill="#a77a38" stroke="#1c211e" stroke-opacity=".68" stroke-width="1.35" stroke-linejoin="round" vector-effect="non-scaling-stroke"/><polygon points="286.13,316.16 284.52,270.10 263.40,265.54 265.00,311.60" fill="#6c4e21" stroke="#1c211e" stroke-opacity=".68" stroke-width="1.35" stroke-linejoin="round" vector-effect="non-scaling-stroke"/><polygon points="282.97,296.01 282.97,251.08 261.84,243.58 261.84,288.51" fill="#6c4e21" stroke="#1c211e" stroke-opacity=".68" stroke-width="1.35" stroke-linejoin="round" vector-effect="non-scaling-stroke"/><polygon points="321.17,335.23 319.45,286.07 287.34,289.74 289.05,338.91" fill="#815e29" stroke="#1c211e" stroke-opacity=".68" stroke-width="1.35" stroke-linejoin="round" vector-effect="non-scaling-stroke"/><polygon points="344.66,352.89 320.81,346.64 310.95,347.97 334.79,354.22" fill="#eadab8" stroke="#1c211e" stroke-opacity=".68" stroke-width="1.35" stroke-linejoin="round" vector-effect="non-scaling-stroke"/><polygon points="334.94,368.57 334.79,354.22 310.95,347.97 311.09,362.32" fill="#bdb094" stroke="#1c211e" stroke-opacity=".68" stroke-width="1.35" stroke-linejoin="round" vector-effect="non-scaling-stroke"/><polygon points="282.43,284.31 282.43,231.64 258.39,223.10 258.39,275.78" fill="#6c4e21" stroke="#1c211e" stroke-opacity=".68" stroke-width="1.35" stroke-linejoin="round" vector-effect="non-scaling-stroke"/><polygon points="378.30,143.79 380.18,121.35 338.78,93.41 336.90,115.84" fill="#b89d50" stroke="#1c211e" stroke-opacity=".68" stroke-width="1.35" stroke-linejoin="round" vector-effect="non-scaling-stroke"/><polygon points="323.46,291.38 323.46,246.45 282.97,251.08 282.97,296.01" fill="#805d29" stroke="#1c211e" stroke-opacity=".68" stroke-width="1.35" stroke-linejoin="round" vector-effect="non-scaling-stroke"/><polygon points="326.63,311.53 325.02,265.47 284.52,270.10 286.13,316.16" fill="#815e29" stroke="#1c211e" stroke-opacity=".68" stroke-width="1.35" stroke-linejoin="round" vector-effect="non-scaling-stroke"/><polygon points="329.07,354.78 308.11,348.18 297.74,349.36 318.70,355.97" fill="#eadab8" stroke="#1c211e" stroke-opacity=".68" stroke-width="1.35" stroke-linejoin="round" vector-effect="non-scaling-stroke"/><polygon points="292.16,374.00 291.87,345.30 260.72,335.48 261.01,364.18" fill="#b89d50" stroke="#1c211e" stroke-opacity=".68" stroke-width="1.35" stroke-linejoin="round" vector-effect="non-scaling-stroke"/><polygon points="318.84,370.32 318.70,355.97 297.74,349.36 297.88,363.71" fill="#bdb094" stroke="#1c211e" stroke-opacity=".68" stroke-width="1.35" stroke-linejoin="round" vector-effect="non-scaling-stroke"/><polygon points="372.42,252.30 372.42,175.86 333.84,162.16 333.84,238.60" fill="#8d672e" stroke="#1c211e" stroke-opacity=".68" stroke-width="1.35" stroke-linejoin="round" vector-effect="non-scaling-stroke"/><polygon points="311.91,153.59 313.79,131.16 258.38,137.49 256.50,159.93" fill="#d8c9a9" stroke="#1c211e" stroke-opacity=".68" stroke-width="1.35" stroke-linejoin="round" vector-effect="non-scaling-stroke"/><polygon points="326.92,279.23 326.92,226.55 282.43,231.64 282.43,284.31" fill="#805d29" stroke="#1c211e" stroke-opacity=".68" stroke-width="1.35" stroke-linejoin="round" vector-effect="non-scaling-stroke"/><polygon points="344.80,367.24 344.66,352.89 334.79,354.22 334.94,368.57" fill="#e2d2b1" stroke="#1c211e" stroke-opacity=".68" stroke-width="1.35" stroke-linejoin="round" vector-effect="non-scaling-stroke"/><polygon points="313.38,356.67 295.44,349.74 284.63,350.77 302.57,357.70" fill="#eadab8" stroke="#1c211e" stroke-opacity=".68" stroke-width="1.35" stroke-linejoin="round" vector-effect="non-scaling-stroke"/><polygon points="391.72,129.14 350.33,101.19 294.92,107.52 336.31,135.47" fill="#e8c667" stroke="#1c211e" stroke-opacity=".68" stroke-width="1.35" stroke-linejoin="round" vector-effect="non-scaling-stroke"/><polygon points="302.72,372.05 302.57,357.70 284.63,350.77 284.78,365.12" fill="#bdb094" stroke="#1c211e" stroke-opacity=".68" stroke-width="1.35" stroke-linejoin="round" vector-effect="non-scaling-stroke"/><polygon points="455.16,242.84 455.16,166.39 372.42,175.86 372.42,252.30" fill="#a77a38" stroke="#1c211e" stroke-opacity=".68" stroke-width="1.35" stroke-linejoin="round" vector-effect="non-scaling-stroke"/><polygon points="349.75,367.41 349.46,338.72 291.87,345.30 292.16,374.00" fill="#daba60" stroke="#1c211e" stroke-opacity=".68" stroke-width="1.35" stroke-linejoin="round" vector-effect="non-scaling-stroke"/><polygon points="433.70,137.45 435.58,115.02 380.18,121.35 378.30,143.79" fill="#d2b35d" stroke="#1c211e" stroke-opacity=".68" stroke-width="1.35" stroke-linejoin="round" vector-effect="non-scaling-stroke"/><polygon points="329.21,369.13 329.07,354.78 318.70,355.97 318.84,370.32" fill="#e0d0b0" stroke="#1c211e" stroke-opacity=".68" stroke-width="1.35" stroke-linejoin="round" vector-effect="non-scaling-stroke"/><polygon points="334.43,157.91 336.31,135.47 294.92,107.52 293.04,129.96" fill="#b89d50" stroke="#1c211e" stroke-opacity=".68" stroke-width="1.35" stroke-linejoin="round" vector-effect="non-scaling-stroke"/><polygon points="313.52,371.01 313.38,356.67 302.57,357.70 302.72,372.05" fill="#decfae" stroke="#1c211e" stroke-opacity=".68" stroke-width="1.35" stroke-linejoin="round" vector-effect="non-scaling-stroke"/><polygon points="347.86,143.25 306.46,115.30 251.06,121.64 292.45,149.59" fill="#e8c667" stroke="#1c211e" stroke-opacity=".68" stroke-width="1.35" stroke-linejoin="round" vector-effect="non-scaling-stroke"/><polygon points="389.84,151.57 391.72,129.14 336.31,135.47 334.43,157.91" fill="#d2b35d" stroke="#1c211e" stroke-opacity=".68" stroke-width="1.35" stroke-linejoin="round" vector-effect="non-scaling-stroke"/><polygon points="290.57,172.02 292.45,149.59 251.06,121.64 249.18,144.07" fill="#b89d50" stroke="#1c211e" stroke-opacity=".68" stroke-width="1.35" stroke-linejoin="round" vector-effect="non-scaling-stroke"/><polygon points="539.18,160.18 456.93,130.99 327.65,145.77 409.90,174.96" fill="#af813b" stroke="#1c211e" stroke-opacity=".68" stroke-width="1.35" stroke-linejoin="round" vector-effect="non-scaling-stroke"/><polygon points="345.98,165.69 347.86,143.25 292.45,149.59 290.57,172.02" fill="#d2b35d" stroke="#1c211e" stroke-opacity=".68" stroke-width="1.35" stroke-linejoin="round" vector-effect="non-scaling-stroke"/><polygon points="409.90,284.16 409.90,174.96 327.65,145.77 327.65,254.97" fill="#8d672e" stroke="#1c211e" stroke-opacity=".68" stroke-width="1.35" stroke-linejoin="round" vector-effect="non-scaling-stroke"/><polygon points="522.20,198.69 518.16,197.25 505.23,198.73 509.28,200.16" fill="#726c54" stroke="#ffe59a" stroke-opacity=".74" stroke-width="1.35" stroke-linejoin="round" vector-effect="non-scaling-stroke" filter="url(#portrait-glow)"/><polygon points="522.20,213.25 522.20,198.69 509.28,200.16 509.28,214.72" fill="#726c54" stroke="#ffe59a" stroke-opacity=".74" stroke-width="1.35" stroke-linejoin="round" vector-effect="non-scaling-stroke" filter="url(#portrait-glow)"/><polygon points="509.28,214.72 509.28,200.16 505.23,198.73 505.23,213.29" fill="#726c54" stroke="#ffe59a" stroke-opacity=".74" stroke-width="1.35" stroke-linejoin="round" vector-effect="non-scaling-stroke" filter="url(#portrait-glow)"/><polygon points="520.65,201.97 519.53,201.57 515.91,201.98 517.03,202.38" fill="#e5e2d6" stroke="#1c211e" stroke-opacity=".68" stroke-width="1.35" stroke-linejoin="round" vector-effect="non-scaling-stroke"/><polygon points="520.65,206.04 520.65,201.97 517.03,202.38 517.03,206.46" fill="#dad7cc" stroke="#1c211e" stroke-opacity=".68" stroke-width="1.35" stroke-linejoin="round" vector-effect="non-scaling-stroke"/><polygon points="517.03,206.46 517.03,202.38 515.91,201.98 515.91,206.06" fill="#b9b6ad" stroke="#1c211e" stroke-opacity=".68" stroke-width="1.35" stroke-linejoin="round" vector-effect="non-scaling-stroke"/><polygon points="539.18,269.38 539.18,160.18 409.90,174.96 409.90,284.16" fill="#a77a38" stroke="#1c211e" stroke-opacity=".68" stroke-width="1.35" stroke-linejoin="round" vector-effect="non-scaling-stroke"/><polygon points="538.62,216.10 499.14,202.09 411.23,212.14 450.71,226.15" fill="#86622b" stroke="#1c211e" stroke-opacity=".68" stroke-width="1.35" stroke-linejoin="round" vector-effect="non-scaling-stroke"/><polygon points="450.71,275.29 450.71,226.15 411.23,212.14 411.23,261.28" fill="#6c4e21" stroke="#1c211e" stroke-opacity=".68" stroke-width="1.35" stroke-linejoin="round" vector-effect="non-scaling-stroke"/><polygon points="449.81,206.96 445.76,205.53 432.83,207.00 436.88,208.44" fill="#726c54" stroke="#ffe59a" stroke-opacity=".74" stroke-width="1.35" stroke-linejoin="round" vector-effect="non-scaling-stroke" filter="url(#portrait-glow)"/><polygon points="514.54,232.97 498.34,227.22 469.90,230.47 486.10,236.22" fill="#222327" stroke="#1c211e" stroke-opacity=".68" stroke-width="1.35" stroke-linejoin="round" vector-effect="non-scaling-stroke"/><polygon points="538.62,265.24 538.62,216.10 450.71,226.15 450.71,275.29" fill="#805d29" stroke="#1c211e" stroke-opacity=".68" stroke-width="1.35" stroke-linejoin="round" vector-effect="non-scaling-stroke"/><polygon points="449.81,221.52 449.81,206.96 436.88,208.44 436.88,223.00" fill="#726c54" stroke="#ffe59a" stroke-opacity=".74" stroke-width="1.35" stroke-linejoin="round" vector-effect="non-scaling-stroke" filter="url(#portrait-glow)"/><polygon points="436.88,223.00 436.88,208.44 432.83,207.00 432.83,221.57" fill="#726c54" stroke="#ffe59a" stroke-opacity=".74" stroke-width="1.35" stroke-linejoin="round" vector-effect="non-scaling-stroke" filter="url(#portrait-glow)"/><polygon points="448.25,210.24 447.13,209.85 443.51,210.26 444.63,210.66" fill="#e5e2d6" stroke="#1c211e" stroke-opacity=".68" stroke-width="1.35" stroke-linejoin="round" vector-effect="non-scaling-stroke"/><polygon points="448.25,214.32 448.25,210.24 444.63,210.66 444.63,214.74" fill="#dad7cc" stroke="#1c211e" stroke-opacity=".68" stroke-width="1.35" stroke-linejoin="round" vector-effect="non-scaling-stroke"/><polygon points="444.63,214.74 444.63,210.66 443.51,210.26 443.51,214.34" fill="#b9b6ad" stroke="#1c211e" stroke-opacity=".68" stroke-width="1.35" stroke-linejoin="round" vector-effect="non-scaling-stroke"/><polygon points="486.10,255.88 486.10,236.22 469.90,230.47 469.90,250.13" fill="#191a1e" stroke="#1c211e" stroke-opacity=".68" stroke-width="1.35" stroke-linejoin="round" vector-effect="non-scaling-stroke"/><polygon points="514.54,252.63 514.54,232.97 486.10,236.22 486.10,255.88" fill="#1f2025" stroke="#1c211e" stroke-opacity=".68" stroke-width="1.35" stroke-linejoin="round" vector-effect="non-scaling-stroke"/></g>
</svg>