<?xml version="1.0" encoding="UTF-8"?>
<svg xmlns="http://www.w3.org/2000/svg" width="640" height="420" viewBox="0 0 640 420" role="img" aria-labelledby="portrait-title">
  <title id="portrait-title">Taffy Hound front three-quarter model portrait</title>
  <defs>
    <filter id="portrait-glow" x="-80%" y="-80%" width="260%" height="260%"><feGaussianBlur stdDeviation="4" result="blur"/><feMerge><feMergeNode in="blur"/><feMergeNode in="SourceGraphic"/></feMerge></filter>
    <filter id="portrait-shadow" x="-40%" y="-80%" width="180%" height="260%"><feGaussianBlur stdDeviation="8"/></filter>
  </defs>
  <ellipse cx="311.34" cy="348.09" rx="300.26" ry="13" fill="#0c120f" opacity=".32" filter="url(#portrait-shadow)"/>

  <g><polygon points="156.45,94.75 139.24,58.04 111.48,109.65 128.69,146.36" fill="#ba9853" stroke="#1c211e" stroke-opacity=".68" stroke-width="1.35" stroke-linejoin="round" vector-effect="non-scaling-stroke"/><polygon points="197.16,90.10 156.45,94.75 128.69,146.36 169.40,141.70" fill="#ba9853" stroke="#1c211e" stroke-opacity=".68" stroke-width="1.35" stroke-linejoin="round" vector-effect="non-scaling-stroke"/><polygon points="155.23,185.58 175.05,91.15 157.00,105.25 137.18,199.68" fill="#22172c" stroke="#1c211e" stroke-opacity=".68" stroke-width="1.35" stroke-linejoin="round" vector-effect="non-scaling-stroke"/><polygon points="197.16,90.10 179.96,53.39 139.24,58.04 156.45,94.75" fill="#eec46c" stroke="#1c211e" stroke-opacity=".68" stroke-width="1.35" stroke-linejoin="round" vector-effect="non-scaling-stroke"/><polygon points="192.50,200.10 212.32,105.66 175.05,91.15 155.23,185.58" fill="#2e203a" stroke="#1c211e" stroke-opacity=".68" stroke-width="1.35" stroke-linejoin="round" vector-effect="non-scaling-stroke"/><polygon points="192.50,200.10 155.23,185.58 137.18,199.68 174.45,214.20" fill="#22172c" stroke="#1c211e" stroke-opacity=".68" stroke-width="1.35" stroke-linejoin="round" vector-effect="non-scaling-stroke"/><polygon points="276.45,173.26 241.85,177.21 183.70,222.64 218.30,218.69" fill="#22172c" stroke="#1c211e" stroke-opacity=".68" stroke-width="1.35" stroke-linejoin="round" vector-effect="non-scaling-stroke"/><polygon points="241.85,177.21 232.09,139.93 173.94,185.36 183.70,222.64" fill="#22172c" stroke="#1c211e" stroke-opacity=".68" stroke-width="1.35" stroke-linejoin="round" vector-effect="non-scaling-stroke"/><polygon points="340.56,225.05 316.90,218.02 169.71,238.15 193.37,245.17" fill="#ad4b7f" stroke="#1c211e" stroke-opacity=".68" stroke-width="1.35" stroke-linejoin="round" vector-effect="non-scaling-stroke"/><polygon points="276.45,173.26 266.69,135.97 232.09,139.93 241.85,177.21" fill="#2e203a" stroke="#1c211e" stroke-opacity=".68" stroke-width="1.35" stroke-linejoin="round" vector-effect="non-scaling-stroke"/><polygon points="340.56,237.66 340.56,225.05 193.37,245.17 193.37,257.78" fill="#a54779" stroke="#1c211e" stroke-opacity=".68" stroke-width="1.35" stroke-linejoin="round" vector-effect="non-scaling-stroke"/><polygon points="357.38,255.57 341.21,249.82 314.74,252.85 330.92,258.59" fill="#ad4b7f" stroke="#1c211e" stroke-opacity=".68" stroke-width="1.35" stroke-linejoin="round" vector-effect="non-scaling-stroke"/><polygon points="330.92,327.37 330.92,258.59 314.74,252.85 314.74,321.63" fill="#8b3a65" stroke="#1c211e" stroke-opacity=".68" stroke-width="1.35" stroke-linejoin="round" vector-effect="non-scaling-stroke"/><polygon points="361.45,211.54 340.66,204.16 306.05,208.12 326.85,215.50" fill="#ce6997" stroke="#1c211e" stroke-opacity=".68" stroke-width="1.35" stroke-linejoin="round" vector-effect="non-scaling-stroke"/><polygon points="385.47,299.73 349.65,287.02 302.83,292.37 338.65,305.08" fill="#5f2d4b" stroke="#1c211e" stroke-opacity=".68" stroke-width="1.35" stroke-linejoin="round" vector-effect="non-scaling-stroke"/><polygon points="357.38,324.34 357.38,255.57 330.92,258.59 330.92,327.37" fill="#a44678" stroke="#1c211e" stroke-opacity=".68" stroke-width="1.35" stroke-linejoin="round" vector-effect="non-scaling-stroke"/><polygon points="326.85,279.69 326.85,215.50 306.05,208.12 306.05,272.31" fill="#a65379" stroke="#1c211e" stroke-opacity=".68" stroke-width="1.35" stroke-linejoin="round" vector-effect="non-scaling-stroke"/><polygon points="338.65,334.89 338.65,305.08 302.83,292.37 302.83,322.18" fill="#4c223a" stroke="#1c211e" stroke-opacity=".68" stroke-width="1.35" stroke-linejoin="round" vector-effect="non-scaling-stroke"/><polygon points="361.45,275.73 361.45,211.54 326.85,215.50 326.85,279.69" fill="#c4648f" stroke="#1c211e" stroke-opacity=".68" stroke-width="1.35" stroke-linejoin="round" vector-effect="non-scaling-stroke"/><polygon points="365.06,153.69 311.91,134.83 177.56,150.19 230.71,169.05" fill="#ce6997" stroke="#1c211e" stroke-opacity=".68" stroke-width="1.35" stroke-linejoin="round" vector-effect="non-scaling-stroke"/><polygon points="193.37,257.78 193.37,245.17 169.71,238.15 169.71,250.76" fill="#8b3a65" stroke="#1c211e" stroke-opacity=".68" stroke-width="1.35" stroke-linejoin="round" vector-effect="non-scaling-stroke"/><polygon points="385.47,329.54 385.47,299.73 338.65,305.08 338.65,334.89" fill="#5a2a46" stroke="#1c211e" stroke-opacity=".68" stroke-width="1.35" stroke-linejoin="round" vector-effect="non-scaling-stroke"/><polygon points="374.69,213.32 356.89,205.62 195.66,220.77 213.46,228.46" fill="#e6bd68" stroke="#1c211e" stroke-opacity=".68" stroke-width="1.35" stroke-linejoin="round" vector-effect="non-scaling-stroke"/><polygon points="230.71,274.51 230.71,169.05 177.56,150.19 177.56,255.65" fill="#a65379" stroke="#1c211e" stroke-opacity=".68" stroke-width="1.35" stroke-linejoin="round" vector-effect="non-scaling-stroke"/><polygon points="374.69,225.93 374.69,213.32 213.46,228.46 213.46,241.07" fill="#d9b262" stroke="#1c211e" stroke-opacity=".68" stroke-width="1.35" stroke-linejoin="round" vector-effect="non-scaling-stroke"/><polygon points="255.60,267.20 239.43,261.46 212.97,264.49 229.14,270.23" fill="#ad4b7f" stroke="#1c211e" stroke-opacity=".68" stroke-width="1.35" stroke-linejoin="round" vector-effect="non-scaling-stroke"/><polygon points="229.14,339.01 229.14,270.23 212.97,264.49 212.97,333.26" fill="#8b3a65" stroke="#1c211e" stroke-opacity=".68" stroke-width="1.35" stroke-linejoin="round" vector-effect="non-scaling-stroke"/><polygon points="365.06,259.15 365.06,153.69 230.71,169.05 230.71,274.51" fill="#c4648f" stroke="#1c211e" stroke-opacity=".68" stroke-width="1.35" stroke-linejoin="round" vector-effect="non-scaling-stroke"/><polygon points="259.67,223.18 238.88,215.80 204.27,219.75 225.07,227.13" fill="#ce6997" stroke="#1c211e" stroke-opacity=".68" stroke-width="1.35" stroke-linejoin="round" vector-effect="non-scaling-stroke"/><polygon points="283.69,311.37 247.87,298.66 201.06,304.01 236.87,316.72" fill="#5f2d4b" stroke="#1c211e" stroke-opacity=".68" stroke-width="1.35" stroke-linejoin="round" vector-effect="non-scaling-stroke"/><polygon points="255.60,335.98 255.60,267.20 229.14,270.23 229.14,339.01" fill="#a44678" stroke="#1c211e" stroke-opacity=".68" stroke-width="1.35" stroke-linejoin="round" vector-effect="non-scaling-stroke"/><polygon points="225.07,291.33 225.07,227.13 204.27,219.75 204.27,283.95" fill="#a65379" stroke="#1c211e" stroke-opacity=".68" stroke-width="1.35" stroke-linejoin="round" vector-effect="non-scaling-stroke"/><polygon points="236.87,346.53 236.87,316.72 201.06,304.01 201.06,333.81" fill="#4c223a" stroke="#1c211e" stroke-opacity=".68" stroke-width="1.35" stroke-linejoin="round" vector-effect="non-scaling-stroke"/><polygon points="213.46,241.07 213.46,228.46 195.66,220.77 195.66,233.37" fill="#ba9853" stroke="#1c211e" stroke-opacity=".68" stroke-width="1.35" stroke-linejoin="round" vector-effect="non-scaling-stroke"/><polygon points="259.67,287.37 259.67,223.18 225.07,227.13 225.07,291.33" fill="#c4648f" stroke="#1c211e" stroke-opacity=".68" stroke-width="1.35" stroke-linejoin="round" vector-effect="non-scaling-stroke"/><polygon points="283.69,341.17 283.69,311.37 236.87,316.72 236.87,346.53" fill="#5a2a46" stroke="#1c211e" stroke-opacity=".68" stroke-width="1.35" stroke-linejoin="round" vector-effect="non-scaling-stroke"/><polygon points="400.64,195.93 376.98,188.91 229.79,209.03 253.45,216.06" fill="#ad4b7f" stroke="#1c211e" stroke-opacity=".68" stroke-width="1.35" stroke-linejoin="round" vector-effect="non-scaling-stroke"/><polygon points="448.57,191.93 323.79,147.64 177.23,164.40 302.01,208.69" fill="#ce6997" stroke="#1c211e" stroke-opacity=".68" stroke-width="1.35" stroke-linejoin="round" vector-effect="non-scaling-stroke"/><polygon points="400.64,208.54 400.64,195.93 253.45,216.06 253.45,228.67" fill="#a54779" stroke="#1c211e" stroke-opacity=".68" stroke-width="1.35" stroke-linejoin="round" vector-effect="non-scaling-stroke"/><polygon points="302.01,318.73 302.01,208.69 177.23,164.40 177.23,274.44" fill="#a65379" stroke="#1c211e" stroke-opacity=".68" stroke-width="1.35" stroke-linejoin="round" vector-effect="non-scaling-stroke"/><polygon points="434.79,283.04 418.61,277.30 392.15,280.32 408.33,286.07" fill="#ad4b7f" stroke="#1c211e" stroke-opacity=".68" stroke-width="1.35" stroke-linejoin="round" vector-effect="non-scaling-stroke"/><polygon points="408.33,354.84 408.33,286.07 392.15,280.32 392.15,349.10" fill="#8b3a65" stroke="#1c211e" stroke-opacity=".68" stroke-width="1.35" stroke-linejoin="round" vector-effect="non-scaling-stroke"/><polygon points="438.86,239.02 418.06,231.63 383.46,235.59 404.25,242.97" fill="#ce6997" stroke="#1c211e" stroke-opacity=".68" stroke-width="1.35" stroke-linejoin="round" vector-effect="non-scaling-stroke"/><polygon points="462.87,327.21 427.06,314.49 380.24,319.85 416.05,332.56" fill="#5f2d4b" stroke="#1c211e" stroke-opacity=".68" stroke-width="1.35" stroke-linejoin="round" vector-effect="non-scaling-stroke"/><polygon points="434.79,351.82 434.79,283.04 408.33,286.07 408.33,354.84" fill="#a44678" stroke="#1c211e" stroke-opacity=".68" stroke-width="1.35" stroke-linejoin="round" vector-effect="non-scaling-stroke"/><polygon points="404.25,307.16 404.25,242.97 383.46,235.59 383.46,299.78" fill="#a65379" stroke="#1c211e" stroke-opacity=".68" stroke-width="1.35" stroke-linejoin="round" vector-effect="non-scaling-stroke"/><polygon points="253.45,228.67 253.45,216.06 229.79,209.03 229.79,221.64" fill="#8b3a65" stroke="#1c211e" stroke-opacity=".68" stroke-width="1.35" stroke-linejoin="round" vector-effect="non-scaling-stroke"/><polygon points="416.05,362.36 416.05,332.56 380.24,319.85 380.24,349.65" fill="#4c223a" stroke="#1c211e" stroke-opacity=".68" stroke-width="1.35" stroke-linejoin="round" vector-effect="non-scaling-stroke"/><polygon points="438.86,303.21 438.86,239.02 404.25,242.97 404.25,307.16" fill="#c4648f" stroke="#1c211e" stroke-opacity=".68" stroke-width="1.35" stroke-linejoin="round" vector-effect="non-scaling-stroke"/><polygon points="434.76,184.20 416.96,176.51 255.74,191.65 273.54,199.34" fill="#e6bd68" stroke="#1c211e" stroke-opacity=".68" stroke-width="1.35" stroke-linejoin="round" vector-effect="non-scaling-stroke"/><polygon points="462.87,357.01 462.87,327.21 416.05,332.56 416.05,362.36" fill="#5a2a46" stroke="#1c211e" stroke-opacity=".68" stroke-width="1.35" stroke-linejoin="round" vector-effect="non-scaling-stroke"/><polygon points="434.76,196.81 434.76,184.20 273.54,199.34 273.54,211.95" fill="#d9b262" stroke="#1c211e" stroke-opacity=".68" stroke-width="1.35" stroke-linejoin="round" vector-effect="non-scaling-stroke"/><polygon points="273.54,211.95 273.54,199.34 255.74,191.65 255.74,204.26" fill="#ba9853" stroke="#1c211e" stroke-opacity=".68" stroke-width="1.35" stroke-linejoin="round" vector-effect="non-scaling-stroke"/><polygon points="333.01,294.68 316.84,288.94 290.37,291.96 306.55,297.70" fill="#ad4b7f" stroke="#1c211e" stroke-opacity=".68" stroke-width="1.35" stroke-linejoin="round" vector-effect="non-scaling-stroke"/><polygon points="306.55,366.48 306.55,297.70 290.37,291.96 290.37,360.74" fill="#8b3a65" stroke="#1c211e" stroke-opacity=".68" stroke-width="1.35" stroke-linejoin="round" vector-effect="non-scaling-stroke"/><polygon points="448.57,301.97 448.57,191.93 302.01,208.69 302.01,318.73" fill="#c4648f" stroke="#1c211e" stroke-opacity=".68" stroke-width="1.35" stroke-linejoin="round" vector-effect="non-scaling-stroke"/><polygon points="473.16,167.99 420.02,149.13 261.24,167.28 314.39,186.14" fill="#e6bd68" stroke="#1c211e" stroke-opacity=".68" stroke-width="1.35" stroke-linejoin="round" vector-effect="non-scaling-stroke"/><polygon points="337.08,250.65 316.28,243.27 281.68,247.23 302.48,254.61" fill="#ce6997" stroke="#1c211e" stroke-opacity=".68" stroke-width="1.35" stroke-linejoin="round" vector-effect="non-scaling-stroke"/><polygon points="361.09,338.84 325.28,326.13 278.46,331.48 314.28,344.20" fill="#5f2d4b" stroke="#1c211e" stroke-opacity=".68" stroke-width="1.35" stroke-linejoin="round" vector-effect="non-scaling-stroke"/><polygon points="333.01,363.45 333.01,294.68 306.55,297.70 306.55,366.48" fill="#a44678" stroke="#1c211e" stroke-opacity=".68" stroke-width="1.35" stroke-linejoin="round" vector-effect="non-scaling-stroke"/><polygon points="302.48,318.80 302.48,254.61 281.68,247.23 281.68,311.42" fill="#a65379" stroke="#1c211e" stroke-opacity=".68" stroke-width="1.35" stroke-linejoin="round" vector-effect="non-scaling-stroke"/><polygon points="314.28,374.00 314.28,344.20 278.46,331.48 278.46,361.29" fill="#4c223a" stroke="#1c211e" stroke-opacity=".68" stroke-width="1.35" stroke-linejoin="round" vector-effect="non-scaling-stroke"/><polygon points="337.08,314.84 337.08,250.65 302.48,254.61 302.48,318.80" fill="#c4648f" stroke="#1c211e" stroke-opacity=".68" stroke-width="1.35" stroke-linejoin="round" vector-effect="non-scaling-stroke"/><polygon points="361.09,368.65 361.09,338.84 314.28,344.20 314.28,374.00" fill="#5a2a46" stroke="#1c211e" stroke-opacity=".68" stroke-width="1.35" stroke-linejoin="round" vector-effect="non-scaling-stroke"/><polygon points="314.39,314.53 314.39,186.14 261.24,167.28 261.24,295.66" fill="#ba9853" stroke="#1c211e" stroke-opacity=".68" stroke-width="1.35" stroke-linejoin="round" vector-effect="non-scaling-stroke"/><polygon points="473.16,296.37 473.16,167.99 314.39,186.14 314.39,314.53" fill="#dbb363" stroke="#1c211e" stroke-opacity=".68" stroke-width="1.35" stroke-linejoin="round" vector-effect="non-scaling-stroke"/><polygon points="477.18,127.77 437.90,113.82 287.26,131.05 326.55,144.99" fill="#e6bd68" stroke="#1c211e" stroke-opacity=".68" stroke-width="1.35" stroke-linejoin="round" vector-effect="non-scaling-stroke"/><polygon points="477.18,260.74 477.18,127.77 326.55,144.99 326.55,277.96" fill="#dbb363" stroke="#1c211e" stroke-opacity=".68" stroke-width="1.35" stroke-linejoin="round" vector-effect="non-scaling-stroke"/><polygon points="503.38,136.10 456.51,119.14 431.17,118.06 478.04,135.02" fill="#a65379" stroke="#1c211e" stroke-opacity=".68" stroke-width="1.35" stroke-linejoin="round" vector-effect="non-scaling-stroke"/><polygon points="326.55,277.96 326.55,144.99 287.26,131.05 287.26,264.02" fill="#ba9853" stroke="#1c211e" stroke-opacity=".68" stroke-width="1.35" stroke-linejoin="round" vector-effect="non-scaling-stroke"/><polygon points="456.51,119.14 481.64,25.08 456.31,24.00 431.17,118.06" fill="#a65379" stroke="#1c211e" stroke-opacity=".68" stroke-width="1.35" stroke-linejoin="round" vector-effect="non-scaling-stroke"/><polygon points="503.38,136.10 528.52,42.04 481.64,25.08 456.51,119.14" fill="#ca6794" stroke="#1c211e" stroke-opacity=".68" stroke-width="1.35" stroke-linejoin="round" vector-effect="non-scaling-stroke"/><polygon points="496.64,117.12 477.89,110.34 468.65,107.05 487.40,113.84" fill="#c48c9d" stroke="#1c211e" stroke-opacity=".68" stroke-width="1.35" stroke-linejoin="round" vector-effect="non-scaling-stroke"/><polygon points="477.89,110.34 497.71,55.28 488.47,52.00 468.65,107.05" fill="#c48c9d" stroke="#1c211e" stroke-opacity=".68" stroke-width="1.35" stroke-linejoin="round" vector-effect="non-scaling-stroke"/><polygon points="500.78,128.12 436.08,105.16 309.88,119.59 374.57,142.55" fill="#e6bd68" stroke="#1c211e" stroke-opacity=".68" stroke-width="1.35" stroke-linejoin="round" vector-effect="non-scaling-stroke"/><polygon points="496.64,117.12 516.46,62.06 497.71,55.28 477.89,110.34" fill="#e6a5ba" stroke="#1c211e" stroke-opacity=".68" stroke-width="1.35" stroke-linejoin="round" vector-effect="non-scaling-stroke"/><polygon points="374.57,266.35 374.57,142.55 309.88,119.59 309.88,243.38" fill="#ba9853" stroke="#1c211e" stroke-opacity=".68" stroke-width="1.35" stroke-linejoin="round" vector-effect="non-scaling-stroke"/><polygon points="489.62,160.79 485.00,159.15 467.70,161.13 472.32,162.77" fill="#71685d" stroke="#ffe59a" stroke-opacity=".74" stroke-width="1.35" stroke-linejoin="round" vector-effect="non-scaling-stroke" filter="url(#portrait-glow)"/><polygon points="497.03,140.56 487.79,137.28 453.43,136.54 462.67,139.82" fill="#2d1f39" stroke="#1c211e" stroke-opacity=".68" stroke-width="1.35" stroke-linejoin="round" vector-effect="non-scaling-stroke"/><polygon points="489.62,180.28 489.62,160.79 472.32,162.77 472.32,182.26" fill="#71685d" stroke="#ffe59a" stroke-opacity=".74" stroke-width="1.35" stroke-linejoin="round" vector-effect="non-scaling-stroke" filter="url(#portrait-glow)"/><polygon points="472.32,182.26 472.32,162.77 467.70,161.13 467.70,180.62" fill="#71685d" stroke="#ffe59a" stroke-opacity=".74" stroke-width="1.35" stroke-linejoin="round" vector-effect="non-scaling-stroke" filter="url(#portrait-glow)"/><polygon points="495.20,157.84 497.03,140.56 462.67,139.82 460.85,157.10" fill="#2a1d35" stroke="#1c211e" stroke-opacity=".68" stroke-width="1.35" stroke-linejoin="round" vector-effect="non-scaling-stroke"/><polygon points="460.85,157.10 462.67,139.82 453.43,136.54 451.60,153.82" fill="#22172c" stroke="#1c211e" stroke-opacity=".68" stroke-width="1.35" stroke-linejoin="round" vector-effect="non-scaling-stroke"/><polygon points="500.78,251.92 500.78,128.12 374.57,142.55 374.57,266.35" fill="#dbb363" stroke="#1c211e" stroke-opacity=".68" stroke-width="1.35" stroke-linejoin="round" vector-effect="non-scaling-stroke"/><polygon points="508.70,254.73 469.42,240.79 392.07,249.63 431.35,263.57" fill="#e8c992" stroke="#1c211e" stroke-opacity=".68" stroke-width="1.35" stroke-linejoin="round" vector-effect="non-scaling-stroke"/><polygon points="342.44,154.50 301.84,67.96 281.55,66.30 322.15,152.84" fill="#a65379" stroke="#1c211e" stroke-opacity=".68" stroke-width="1.35" stroke-linejoin="round" vector-effect="non-scaling-stroke"/><polygon points="348.71,40.28 328.42,38.62 281.55,66.30 301.84,67.96" fill="#bf618c" stroke="#1c211e" stroke-opacity=".68" stroke-width="1.35" stroke-linejoin="round" vector-effect="non-scaling-stroke"/><polygon points="489.77,279.73 468.98,272.35 436.41,276.07 457.21,283.45" fill="#db7f96" stroke="#1c211e" stroke-opacity=".68" stroke-width="1.35" stroke-linejoin="round" vector-effect="non-scaling-stroke"/><polygon points="389.31,126.82 348.71,40.28 301.84,67.96 342.44,154.50" fill="#c86692" stroke="#1c211e" stroke-opacity=".68" stroke-width="1.35" stroke-linejoin="round" vector-effect="non-scaling-stroke"/><polygon points="431.35,291.09 431.35,263.57 392.07,249.63 392.07,277.14" fill="#bba275" stroke="#1c211e" stroke-opacity=".68" stroke-width="1.35" stroke-linejoin="round" vector-effect="non-scaling-stroke"/><polygon points="526.08,203.20 477.56,185.98 383.93,196.69 432.45,213.91" fill="#e8c992" stroke="#1c211e" stroke-opacity=".68" stroke-width="1.35" stroke-linejoin="round" vector-effect="non-scaling-stroke"/><polygon points="421.92,144.48 412.68,141.20 378.32,149.80 387.57,153.08" fill="#2c1e38" stroke="#1c211e" stroke-opacity=".68" stroke-width="1.35" stroke-linejoin="round" vector-effect="non-scaling-stroke"/><polygon points="412.27,169.64 407.65,168.00 390.35,169.98 394.97,171.62" fill="#71685d" stroke="#ffe59a" stroke-opacity=".74" stroke-width="1.35" stroke-linejoin="round" vector-effect="non-scaling-stroke" filter="url(#portrait-glow)"/><polygon points="412.27,189.12 412.27,169.64 394.97,171.62 394.97,191.10" fill="#71685d" stroke="#ffe59a" stroke-opacity=".74" stroke-width="1.35" stroke-linejoin="round" vector-effect="non-scaling-stroke" filter="url(#portrait-glow)"/><polygon points="353.29,133.51 333.48,82.98 324.24,79.70 344.05,130.23" fill="#c48c9d" stroke="#1c211e" stroke-opacity=".68" stroke-width="1.35" stroke-linejoin="round" vector-effect="non-scaling-stroke"/><polygon points="394.97,191.10 394.97,171.62 390.35,169.98 390.35,189.46" fill="#71685d" stroke="#ffe59a" stroke-opacity=".74" stroke-width="1.35" stroke-linejoin="round" vector-effect="non-scaling-stroke" filter="url(#portrait-glow)"/><polygon points="457.21,296.06 457.21,283.45 436.41,276.07 436.41,288.68" fill="#b16578" stroke="#1c211e" stroke-opacity=".68" stroke-width="1.35" stroke-linejoin="round" vector-effect="non-scaling-stroke"/><polygon points="423.75,161.35 421.92,144.48 387.57,153.08 389.39,169.94" fill="#2a1d35" stroke="#1c211e" stroke-opacity=".68" stroke-width="1.35" stroke-linejoin="round" vector-effect="non-scaling-stroke"/><polygon points="372.04,122.44 352.23,71.91 333.48,82.98 353.29,133.51" fill="#e6a5ba" stroke="#1c211e" stroke-opacity=".68" stroke-width="1.35" stroke-linejoin="round" vector-effect="non-scaling-stroke"/><polygon points="389.39,169.94 387.57,153.08 378.32,149.80 380.15,166.66" fill="#22172c" stroke="#1c211e" stroke-opacity=".68" stroke-width="1.35" stroke-linejoin="round" vector-effect="non-scaling-stroke"/><polygon points="352.23,71.91 342.98,68.63 324.24,79.70 333.48,82.98" fill="#e7a5ba" stroke="#1c211e" stroke-opacity=".68" stroke-width="1.35" stroke-linejoin="round" vector-effect="non-scaling-stroke"/><polygon points="508.70,282.24 508.70,254.73 431.35,263.57 431.35,291.09" fill="#dcbf8b" stroke="#1c211e" stroke-opacity=".68" stroke-width="1.35" stroke-linejoin="round" vector-effect="non-scaling-stroke"/><polygon points="489.77,292.34 489.77,279.73 457.21,283.45 457.21,296.06" fill="#d1788e" stroke="#1c211e" stroke-opacity=".68" stroke-width="1.35" stroke-linejoin="round" vector-effect="non-scaling-stroke"/><polygon points="432.45,275.81 432.45,213.91 383.93,196.69 383.93,258.59" fill="#bba275" stroke="#1c211e" stroke-opacity=".68" stroke-width="1.35" stroke-linejoin="round" vector-effect="non-scaling-stroke"/><polygon points="526.08,265.10 526.08,203.20 432.45,213.91 432.45,275.81" fill="#dcbf8b" stroke="#1c211e" stroke-opacity=".68" stroke-width="1.35" stroke-linejoin="round" vector-effect="non-scaling-stroke"/><polygon points="497.97,220.26 489.88,217.39 467.49,219.95 475.58,222.82" fill="#2d1f38" stroke="#1c211e" stroke-opacity=".68" stroke-width="1.35" stroke-linejoin="round" vector-effect="non-scaling-stroke"/><polygon points="475.58,241.16 475.58,222.82 467.49,219.95 467.49,238.29" fill="#22172c" stroke="#1c211e" stroke-opacity=".68" stroke-width="1.35" stroke-linejoin="round" vector-effect="non-scaling-stroke"/><polygon points="497.97,238.60 497.97,220.26 475.58,222.82 475.58,241.16" fill="#2a1d35" stroke="#1c211e" stroke-opacity=".68" stroke-width="1.35" stroke-linejoin="round" vector-effect="non-scaling-stroke"/></g>
</svg>